<svg xmlns="http://www.w3.org/2000/svg" viewBox="0 0 458.1436 2272.5552">
  <g id="Layer_2" data-name="Layer 2">
    <g id="Layer_1-2" data-name="Layer 1">
      <g>
        <path d="M77.7443,1459.5409a9.52,9.52,0,0,0-9.4976,9.4856l-.06,93.4652a9.52,9.52,0,0,0,9.4855,9.4978l87.4182.0561c5.22.0033,7.7734,3.9165,5.6734,8.6959L70.7783,1808.2974c-2.1,4.7794.4531,8.6926,5.6734,8.6959l299.5186.1922a9.52,9.52,0,0,0,9.4977-9.4857l.0626-97.4938a9.52,9.52,0,0,0-9.4856-9.4978l-77.06-.0494c-5.22-.0034-7.8056-3.93-5.7449-8.727l96.0078-223.4678c2.0607-4.7965-.5245-8.7237-5.7449-8.727Z" style="fill: #d0d0d0"/>
        <path d="M212.5005,239.3709a9.52,9.52,0,0,1-9.4231-9.56l1.5787-219.4425a9.5194,9.5194,0,0,0-9.423-9.56L82.8249,0a9.52,9.52,0,0,0-9.56,9.4232L70.8274,348.2842a9.5194,9.5194,0,0,0,9.4231,9.56l296.7835,2.1353a9.52,9.52,0,0,0,9.56-9.4232l.7226-100.4354a9.52,9.52,0,0,0-9.4231-9.56Z" style="fill: #d0d0d0"/>
        <path d="M334.7973,432.16a9.5221,9.5221,0,0,0,4.498-12.6484l-40.1079-84.42a9.516,9.516,0,0,0-12.6444-4.4984L18.0345,458.25a9.5223,9.5223,0,0,0-4.498,12.6484l145.42,306.0844a9.516,9.516,0,0,0,12.6444,4.4984L440.1091,653.8239a9.5222,9.5222,0,0,0,4.498-12.6484L401.506,550.4547a9.5161,9.5161,0,0,0-12.6444-4.4984L239.4582,616.987a9.5159,9.5159,0,0,1-12.6444-4.4983L222.1,602.5673a9.5223,9.5223,0,0,1,4.498-12.6484l70.4865-33.5113a9.5223,9.5223,0,0,0,4.498-12.6484l-20.1109-42.33a9.516,9.516,0,0,0-12.6444-4.4984L198.341,530.442a9.5159,9.5159,0,0,1-12.6444-4.4984l-4.8007-10.1045a9.5223,9.5223,0,0,1,4.4981-12.6484Z" style="fill: #d0d0d0"/>
        <path d="M228.8459,705.8321,64.0444,784.6862a9.4915,9.4915,0,0,0-4.4653,12.6589l146.066,305.2778a9.4919,9.4919,0,0,0,12.6587,4.4654L319.7053,1058.57a9.4918,9.4918,0,0,0,4.4653-12.6588l-47.711-99.716a9.4927,9.4927,0,0,1,4.4039-12.6294l54.5778-26.5216a112.8353,112.8353,0,0,0,53.0239-150.3162C360.28,697.8206,291.5935,675.8086,228.8459,705.8321ZM262.2177,842.559l-19.7126,9.4321c-4.7286,2.2625-10.2336.6031-12.2953-3.7058l-5.2093-10.8875c-2.0617-4.3089.1-9.6368,4.8287-11.8993l19.7126-9.4321c7.9945-3.8252,17.3873-.9944,20.8736,6.2919C273.9007,829.6427,270.2122,838.7338,262.2177,842.559Z" style="fill: #d0d0d0"/>
        <path d="M401.505,1135.952l-124.6381-28a9.5547,9.5547,0,0,0-11.4584,7.1623l-44.07,196.1768s-3.5491,19.3264-15.2567,16.6963c-12.0565-2.7084-7.1966-21.57-7.1966-21.57l12.7289-56.6631,31.5225-140.3229a9.5554,9.5554,0,0,0-7.2939-11.3749l-124.1966-27.9a9.5554,9.5554,0,0,0-11.4585,7.1622L52.3073,1290.46c-15.5731,69.3236,26.5852,138.5522,109.6684,163.5656,4.829,1.4533,9.7715,2.7847,14.8736,3.9309,98.776,22.19,167.7362-24.7826,184.2143-98.1353l47.7353-212.4942A9.5548,9.5548,0,0,0,401.505,1135.952Z" style="fill: #d0d0d0"/>
        <path d="M187.9559,1806.3669a9.632,9.632,0,0,0-13.148,3.4046l-47.9717,81.4974a9.6319,9.6319,0,0,0,3.4047,13.148l76.2254,44.8686c4.552,2.6794,4.7727,7.4017.49,10.4941L3.073,2107.01c-4.2823,3.0923-4.0616,7.8146.49,10.4941l261.1687,153.7317a9.6318,9.6318,0,0,0,13.1479-3.4047l50.0394-85.01a9.6318,9.6318,0,0,0-3.4046-13.148l-67.1935-39.5521c-4.5519-2.68-4.7935-7.4305-.5368-10.5578l198.3179-145.7037c4.2566-3.1274,4.015-7.8784-.5369-10.5578Z" style="fill: #d0d0d0"/>
      </g>
    </g>
  </g>
</svg>
