<svg xmlns="http://www.w3.org/2000/svg" viewBox="0 0 1366.279 1722.0093">
  <g id="Layer_2" data-name="Layer 2">
    <g id="Layer_1-2" data-name="Layer 1">
      <g>
        <path d="M341.5762,1189.9937a14.1609,14.1609,0,0,0-14.1283,14.11l-.0892,139.0345a14.1609,14.1609,0,0,0,14.11,14.1285l130.0393.0834c7.7656.005,11.5634,5.8261,8.44,12.9357L331.2139,1708.7879c-3.1239,7.11.6739,12.9306,8.4395,12.9356l445.55.2858a14.1609,14.1609,0,0,0,14.1284-14.11l.093-145.0273a14.1609,14.1609,0,0,0-14.11-14.1285l-114.6312-.0735c-7.7656-.005-11.6113-5.8468-8.5459-12.9819l142.8167-332.42c3.0654-7.135-.78-12.9768-8.5458-12.9818Z" style="fill: #d0d0d0"/>
        <path d="M396.2042,426.0333a14.1607,14.1607,0,0,1-14.0173-14.2206L384.5353,85.38A14.1609,14.1609,0,0,0,370.518,71.16l-167.2131-1.203a14.1608,14.1608,0,0,0-14.2205,14.0175l-3.6265,504.0736a14.1609,14.1609,0,0,0,14.0173,14.2207l441.4815,3.1762a14.1609,14.1609,0,0,0,14.2205-14.0175l1.0748-149.403a14.1609,14.1609,0,0,0-14.0173-14.2207Z" style="fill: #d0d0d0"/>
        <path d="M1022.04,152.4466a14.1649,14.1649,0,0,0,6.691-18.8152L969.0683,8.0513A14.1556,14.1556,0,0,0,950.2591,1.36L550.8382,191.2561a14.1649,14.1649,0,0,0-6.691,18.8152l216.32,455.317A14.1555,14.1555,0,0,0,779.276,672.08l399.4209-189.8964a14.1647,14.1647,0,0,0,6.691-18.8151l-64.1152-134.9521a14.1556,14.1556,0,0,0-18.8093-6.6916L880.2179,427.3867a14.1554,14.1554,0,0,1-18.8092-6.6916l-7.0118-14.7585a14.1648,14.1648,0,0,1,6.6911-18.8152l104.8524-49.85a14.1648,14.1648,0,0,0,6.691-18.8151l-29.916-62.9683a14.1555,14.1555,0,0,0-18.8092-6.6916l-104.8524,49.85a14.1554,14.1554,0,0,1-18.8092-6.6916l-7.1412-15.031a14.1648,14.1648,0,0,1,6.691-18.8151Z" style="fill: #d0d0d0"/>
        <path d="M240.822,630.5641,6.9316,768.9606A14.1189,14.1189,0,0,0,1.97,788.3023L258.331,1221.5606a14.12,14.12,0,0,0,19.3415,4.9614l143.9114-85.1547a14.12,14.12,0,0,0,4.9613-19.3416l-83.7376-141.52a14.1211,14.1211,0,0,1,4.8741-19.29l77.405-46.4366c79.5656-47.08,105.9919-150.1082,58.9139-229.6716C434.5327,601.5053,329.8749,577.87,240.822,630.5641Zm67.33,198.2373-27.9766,16.5542c-6.711,3.9709-15.0852,2.2319-18.7037-3.8834L252.3285,826.02c-3.6185-6.1153-1.1118-14.2927,5.5991-18.2637l27.9766-16.5542c11.346-6.7136,25.6344-3.7472,31.7531,6.5937C323.7745,808.1343,319.4976,822.0878,308.1517,828.8014Z" style="fill: #d0d0d0"/>
        <path d="M991.9859,703.0565,806.58,661.4056A14.213,14.213,0,0,0,789.535,672.06L723.9789,963.8834S718.7,992.6325,701.2838,988.72c-17.9346-4.0289-10.7054-32.0868-10.7054-32.0868l18.935-84.2895L756.4048,663.606a14.2141,14.2141,0,0,0-10.85-16.9208L560.8056,605.1818a14.2142,14.2142,0,0,0-17.0451,10.6543l-71.225,317.0594c-23.1658,103.1226,39.547,206.1037,163.1376,243.3127,7.1834,2.1618,14.5357,4.1423,22.1254,5.8473,146.9345,33.0084,249.5166-36.8655,274.0287-145.9815l71.0088-316.0967A14.2131,14.2131,0,0,0,991.9859,703.0565Z" style="fill: #d0d0d0"/>
        <path d="M964.36,1027.22a14.3279,14.3279,0,0,0-19.5583,5.0646l-71.36,121.2317a14.3281,14.3281,0,0,0,5.0646,19.5584l113.39,66.7444c6.7713,3.9858,7.1,11.0105.73,15.6105L689.3369,1474.4422c-6.37,4.6-6.0418,11.6247.73,15.6105l388.5025,228.6841a14.3278,14.3278,0,0,0,19.5583-5.0646l74.4363-126.4571a14.3281,14.3281,0,0,0-5.0646-19.5584l-99.9539-58.8359c-6.7713-3.9857-7.1307-11.0531-.7986-15.7053l295.0085-216.742c6.3321-4.6522,5.9727-11.72-.7986-15.7054Z" style="fill: #d0d0d0"/>
      </g>
    </g>
  </g>
</svg>
