<svg xmlns="http://www.w3.org/2000/svg" viewBox="0 0 283.6901 139.8945">
  <g id="Layer_2" data-name="Layer 2">
    <g id="Layer_1-2" data-name="Layer 1">
      <g>
        <line x1="1.8499" y1="105.5368" x2="282.8187" y2="105.5371" style="fill: none;stroke: #231f20;stroke-linecap: round;stroke-linejoin: round;stroke-width: 1.7426633651224px"/>
        <line x1="1.8499" y1="139.0229" x2="282.8187" y2="139.0232" style="fill: none;stroke: #231f20;stroke-linecap: round;stroke-linejoin: round;stroke-width: 1.7426633651224px"/>
        <g>
          <path d="M15.1206,7.2324v17.03A6.8658,6.8658,0,0,0,15.4883,27.2c.2368.33.9463.4951,2.102.5283v.4287H11.0215v-.4287c1.1035-.0332,1.7866-.2646,2.05-.6279a5.6254,5.6254,0,0,0,.42-2.8379V7.2324H9.918c-1.8916,0-2.4175,1.419-2.5489,4.1582H7.0542l.1572-5.083H21.374l.1841,5.083h-.3154c-.1836-2.7724-.7095-4.1582-2.5747-4.1582Z" transform="translate(0.0002 -4.5179)" style="fill: #231f20;stroke: #231f20;stroke-linecap: round;stroke-linejoin: round;stroke-width: 1.4681899547576904px"/>
          <path d="M33.7993,25.5166c0,1.7168.3941,2.1787,1.8916,2.2119v.4287H30.41v-.4287c1.4453-.0332,1.8916-.4629,1.8916-2.2119V17.9922c0-2.41-.63-3.6309-1.918-3.6309-1.0249,0-2.207.8584-3.4946,2.6075v8.5478c0,1.749.394,2.1787,1.8921,2.2119v.4287H23.4727v-.4287c1.55-.0332,1.9184-.4629,1.9184-2.2119V8.6514c0-1.1885-.2368-1.65-.8672-1.65a2.1275,2.1275,0,0,0-1.0512.2969l-.1314-.3624L26.6,5.252h.2891V16.11c1.55-2.1124,2.9692-3.168,4.2827-3.168,1.6557,0,2.6279,1.4521,2.6279,4.4551Z" transform="translate(0.0002 -4.5179)" style="fill: #231f20;stroke: #231f20;stroke-linecap: round;stroke-linejoin: round;stroke-width: 1.4681899547576904px"/>
          <path d="M37.9224,18.9814c0,5.05,1.7075,7.8223,4.1513,7.8223,1.918,0,3.2056-1.4521,3.8623-4.3232l.2891.1982a9.4492,9.4492,0,0,1-1.5762,4.2246,3.6169,3.6169,0,0,1-3.0483,1.7158,4.2434,4.2434,0,0,1-3.626-2.1455,10.0018,10.0018,0,0,1-1.3926-5.5117c0-4.917,2.0757-8.02,5.2554-8.02a3.8073,3.8073,0,0,1,3.2319,1.6826,7.2414,7.2414,0,0,1,1.2349,4.3564Zm6.3847-.8242c.0264-2.6738-1.2085-4.3574-3.0215-4.3574a2.88,2.88,0,0,0-2.2334,1.2549,5.3663,5.3663,0,0,0-1.104,3.1025Z" transform="translate(0.0002 -4.5179)" style="fill: #231f20;stroke: #231f20;stroke-linecap: round;stroke-linejoin: round;stroke-width: 1.4681899547576904px"/>
          <path d="M56.0493,24.1309,63.6431,9.1133V8.52c0-.8252-.3155-1.3867-.9458-1.5517a4.6249,4.6249,0,0,0-1.55-.1973l.1313-.4629H68.084l-.1314.4629a3.0638,3.0638,0,0,0-2.2338.5938,4.1839,4.1839,0,0,0-.71,2.4423l-1.1558,13.961.0523.0664L69.897,12.1826l.3413-.6269.4468-.9239a7.3865,7.3865,0,0,0,.8671-2.5088c0-.9238-.7094-1.3525-1.55-1.3525l.1313-.4629h5.0449l-.1313.4629a2.1981,2.1981,0,0,0-1.55.7256c-1.0249.957-1.4717,1.9141-2.4961,3.8945a5.8882,5.8882,0,0,1-.3154.627L62.1982,28.6523h-.2631L63.46,11.0273l-.0528-.0654-8.96,17.69h-.2891l1.5239-17.3935c.0787-1.3858.1314-2.2774.1314-2.6406,0-1.2207-.6568-1.8477-1.9971-1.8477l.1314-.4629h6.2539l-.1314.4629c-2.0757,0-2.6279.9238-2.8379,3.3L55.9971,24.0645Z" transform="translate(0.0002 -4.5179)" style="fill: #231f20;stroke: #231f20;stroke-linecap: round;stroke-linejoin: round;stroke-width: 1.4681899547576904px"/>
          <path d="M70.0513,23.5361a11.58,11.58,0,0,1,2.207-6.832c1.498-2.0791,3.1533-3.1348,4.9927-3.1348,1.9966,0,3.4419,2.0127,3.4419,5.0821a11.6818,11.6818,0,0,1-2.1548,6.8c-1.4185,2.0791-3.0215,3.1025-4.7818,3.1025C71.5225,28.5537,70.0513,26.4736,70.0513,23.5361Zm7.5937,1.09A16.1928,16.1928,0,0,0,79.3,17.4639c0-2.1455-.8936-3.3008-2.2861-3.3008A3.5451,3.5451,0,0,0,74.2817,15.88a13.3187,13.3187,0,0,0-2.0756,4.125,15.508,15.508,0,0,0-.7623,4.5547c0,1.8818.9722,3.4326,2.47,3.4326C75.3062,27.9922,76.5415,26.87,77.645,24.626Z" transform="translate(0.0002 -4.5179)" style="fill: #231f20;stroke: #231f20;stroke-linecap: round;stroke-linejoin: round;stroke-width: 1.4681899547576904px"/>
          <path d="M86.8125,13.5693l-1.7607,7.7891.0527.0654c.5254-1.1543,1.1035-2.2441,1.708-3.333a16.924,16.924,0,0,1,2.2856-3.0693,3.6781,3.6781,0,0,1,2.4439-1.4522c.7358,0,1.2349.6934,1.2349,1.8809a8.0783,8.0783,0,0,1-.1841,1.5518l-.2364,1.0556c-.1313.627-.6044,2.4092-.9194,3.8291a40.5563,40.5563,0,0,0-.9985,4.72c0,.3956.1313.5938.42.5938.5517,0,1.2871-.8584,2.207-2.541l.2891.23A11.0342,11.0342,0,0,1,91.7,27.3984a2.7058,2.7058,0,0,1-1.7607,1.1553c-.5518,0-.8145-.4629-.8145-1.3535a50.0314,50.0314,0,0,1,1.1826-5.875c.2891-1.2207.6568-2.6738.7881-3.3008a17.2541,17.2541,0,0,0,.3941-2.0791q0-1.0884-.71-1.0889c-.604,0-1.3662.627-2.3384,1.8477a26.505,26.505,0,0,0-2.6274,4.291A21.0152,21.0152,0,0,0,84.1846,25.22l-.7617,2.9375H82.188l2.207-9.6045q.5516-2.4756.5518-2.7724c0-.66-.3941-.99-1.1563-.99l-.8408.1v-.4628l3.7315-.8575Z" transform="translate(0.0002 -4.5179)" style="fill: #231f20;stroke: #231f20;stroke-linecap: round;stroke-linejoin: round;stroke-width: 1.4681899547576904px"/>
          <path d="M95.6392,19.6094a15.2735,15.2735,0,0,1,2.7851-4.291,4.7252,4.7252,0,0,1,3.1528-1.7491c1.1036,0,1.8658.7256,2.2862,2.1455l1.2612-5.4794a26.539,26.539,0,0,0,.5518-2.8379c0-.5948-.3941-.8916-1.2085-.8916a2.9269,2.9269,0,0,0-.7886.1318V6.1426l3.6787-.8906h.1577l-4.52,19.539c-.1841.957-.2891,1.4854-.2891,1.584,0,.4287.105.627.3155.627q.5127,0,2.207-2.4756l.2891.2314-.63,1.0557c-.3682.6279-.6572,1.0566-.8672,1.3535-.394.5615-1.2612,1.3867-1.918,1.3867-.5517,0-.8149-.4951-.8149-1.4853a24.3661,24.3661,0,0,1,1.0249-4.8848l-.0527-.0664a21.2965,21.2965,0,0,1-2.5748,4.456,3.9828,3.9828,0,0,1-3.0478,1.98c-1.3931,0-2.1021-1.3867-2.1021-4.1924A11.8924,11.8924,0,0,1,95.6392,19.6094Zm1.8916,7.5244c.7094,0,1.498-.66,2.4174-1.9473a20.6149,20.6149,0,0,0,2.3121-4.4551,11.9848,11.9848,0,0,0,.9462-4.0273c0-1.4844-.6308-2.5078-1.6816-2.5078A3.5585,3.5585,0,0,0,98.95,15.9121a14.5784,14.5784,0,0,0-2.1807,4.06,12.6421,12.6421,0,0,0-.8408,4.1592C95.9282,26.1436,96.4536,27.1338,97.5308,27.1338Z" transform="translate(0.0002 -4.5179)" style="fill: #231f20;stroke: #231f20;stroke-linecap: round;stroke-linejoin: round;stroke-width: 1.4681899547576904px"/>
          <path d="M116.0264,24.7578c-2.023,2.541-3.9673,3.7959-5.833,3.7959A2.9089,2.9089,0,0,1,107.8022,27.2a5.6951,5.6951,0,0,1-.9721-3.4658,11.5977,11.5977,0,0,1,2.3647-6.8975c1.5767-2.1787,3.2583-3.2676,5.0186-3.2676,1.6553,0,2.47.792,2.47,2.376a4.229,4.229,0,0,1-1.2876,3.0039,11.7027,11.7027,0,0,1-7.0684,3.0362c-.0786.66-.1313,1.1552-.1313,1.4521,0,2.3437,1.1035,3.7627,2.9956,3.7627,1.2876,0,2.8115-.9238,4.6245-2.8057Zm-2.5225-5.3467a4.6928,4.6928,0,0,0,1.813-3.499c0-1.0225-.5781-1.749-1.419-1.749-1.2348,0-2.4169.8252-3.5205,2.4424a11.9068,11.9068,0,0,0-1.9707,4.8183A9.3769,9.3769,0,0,0,113.5039,19.4111Z" transform="translate(0.0002 -4.5179)" style="fill: #231f20;stroke: #231f20;stroke-linecap: round;stroke-linejoin: round;stroke-width: 1.4681899547576904px"/>
          <path d="M117.3911,28.1572l2.207-9.6045c.3946-1.749.5782-2.6728.5782-2.7724,0-.7588-.3413-.99-1.2085-.99a4.998,4.998,0,0,0-.8145.1v-.4628l3.7837-.8575h.105L120.229,21.49l.0527.0664c2.5747-5.3144,4.4927-7.9873,5.78-7.9873.3418,0,.6045.4287.6045,1.0557,0,1.2871-.4468,2.4092-1.0513,2.4092-.21,0-.3413-.23-.42-.6592-.0522-.4629-.1836-.6934-.42-.6934-.2886,0-.7881.4952-1.55,1.5176a27.7294,27.7294,0,0,0-2.3647,4.126,22.47,22.47,0,0,0-1.7866,5.05l-.4205,1.7822Z" transform="translate(0.0002 -4.5179)" style="fill: #231f20;stroke: #231f20;stroke-linecap: round;stroke-linejoin: round;stroke-width: 1.4681899547576904px"/>
          <path d="M134.022,13.9648l-.1577.792h-2.2334L129.66,24.0977q-2.2075,11.1884-6.28,11.1884a1.6709,1.6709,0,0,1-1.6289-1.5507,1.21,1.21,0,0,1,1.0512-1.2549.8107.8107,0,0,1,.7354.8252c0,.4951-.42.8916-.42,1.0234,0,.2314.1577.33.4468.33,1.0249,0,1.8657-.6934,2.5224-2.0459A35.0784,35.0784,0,0,0,128.11,25.55l2.26-10.793h-2.5752l.1577-.792a3.1388,3.1388,0,0,0,2.0494-.4951,6.6293,6.6293,0,0,0,1.34-2.4746q2.2464-5.7437,5.1235-5.7431a2.05,2.05,0,0,1,2.1021,1.9472c0,.7588-.42,1.2871-.9722,1.2871a.8554.8554,0,0,1-.8672-.9238c0-.2969.3418-.957.3418-1.2217,0-.33-.21-.4951-.6045-.4951-2.0757,0-3.4419,2.3105-4.6772,8.1191Z" transform="translate(0.0002 -4.5179)" style="fill: #231f20;stroke: #231f20;stroke-linecap: round;stroke-linejoin: round;stroke-width: 1.4681899547576904px"/>
          <path d="M145.1348,13.6025l-2.2071,9.6036a16.9253,16.9253,0,0,0-.5781,3.2675c0,.43.1314.66.42.66.5254,0,1.2085-.8252,2.0757-2.4424l.2627.2647a14.1448,14.1448,0,0,1-1.5762,2.4746,2.3884,2.3884,0,0,1-1.7607,1.123c-.5518,0-.8145-.3965-.8145-1.1885A33.3441,33.3441,0,0,1,142.3232,20.6l-.0522-.0664a33.0344,33.0344,0,0,1-2.7329,5.0166c-1.1821,1.8154-2.6275,3.0039-3.8887,3.0039-.7622,0-1.1562-.793-1.1562-1.8818a24.2637,24.2637,0,0,1,.7094-4.06c.1314-.6269.2891-1.2539.4468-1.9141.3154-1.32.42-1.8818.604-2.6738a9.7209,9.7209,0,0,0,.4209-2.4424c0-.3955-.1318-.5937-.3681-.5937q-.4337,0-1.1036.792a10.7571,10.7571,0,0,0-1.0771,1.5517l-.2368-.2314a12.3805,12.3805,0,0,1,1.498-2.376,2.5668,2.5668,0,0,1,1.8394-1.1553c.5776,0,.8667.4619.8667,1.3526a34.0589,34.0589,0,0,1-.7881,4.0927c-.2363,1.0235-.4468,1.8487-.5781,2.5088a33.7294,33.7294,0,0,0-.8931,4.6534c0,.66.2363.99.7353.99.8145,0,1.9971-1.1885,3.5474-3.5313a23.6556,23.6556,0,0,0,3.3369-8.2509l.3677-1.4522Z" transform="translate(0.0002 -4.5179)" style="fill: #231f20;stroke: #231f20;stroke-linecap: round;stroke-linejoin: round;stroke-width: 1.4681899547576904px"/>
          <path d="M151.938,5.252l-4.5195,20.1992a5.7905,5.7905,0,0,0-.21,1.1552c0,.4288.1572.627.4727.627.5,0,1.3139-.8916,2.3911-2.6406l.3154.2636a13.56,13.56,0,0,1-1.7344,2.5088,2.6518,2.6518,0,0,1-1.8916,1.1885c-.6045,0-.8935-.4951-.8935-1.4531a17.9474,17.9474,0,0,1,.42-2.31l3.2583-14.5556c.394-1.7491.5781-2.6729.5781-2.7725,0-.627-.42-.957-1.2612-.957a2.2162,2.2162,0,0,0-.8409.1318V6.1426l3.7837-.8906Z" transform="translate(0.0002 -4.5179)" style="fill: #231f20;stroke: #231f20;stroke-linecap: round;stroke-linejoin: round;stroke-width: 1.4681899547576904px"/>
          <path d="M157.77,5.252l-4.52,20.1992a5.7905,5.7905,0,0,0-.21,1.1552c0,.4288.1573.627.4727.627.4995,0,1.3139-.8916,2.3911-2.6406l.3154.2636a13.5593,13.5593,0,0,1-1.7343,2.5088,2.6519,2.6519,0,0,1-1.8916,1.1885c-.6045,0-.8936-.4951-.8936-1.4531a17.9474,17.9474,0,0,1,.42-2.31l3.2583-14.5556c.394-1.7491.5781-2.6729.5781-2.7725,0-.627-.42-.957-1.2612-.957a2.2156,2.2156,0,0,0-.8408.1318V6.1426l3.7837-.8906Z" transform="translate(0.0002 -4.5179)" style="fill: #231f20;stroke: #231f20;stroke-linecap: round;stroke-linejoin: round;stroke-width: 1.4681899547576904px"/>
          <path d="M157.0859,14.7568l3.39-1.122a14.88,14.88,0,0,1,.8935,4.5224l.63,8.9112,1.3926-2.3106,1.498-2.541c.2891-.4951.63-1.1553,1.0772-1.98a7.1517,7.1517,0,0,0,1.2085-3.0693c0-.5947-.7617-.5947-1.1821-1.2217-.4732-.8584-.1578-2.376.8408-2.376.7617,0,1.2348,1.0557,1.2348,2.1123a10.0546,10.0546,0,0,1-1.4453,4.4551c-.9458,1.7822-2.5488,4.4561-4.8344,8.0537a49.4168,49.4168,0,0,1-3.8628,5.545,3.6,3.6,0,0,1-2.3912,1.5507c-.4462,0-.8671-.56-.8671-1.2207,0-.6933.5781-1.5185,1.13-1.5185q.4336,0,.6309.5937c.1313.43.2627.627.3418.627.3149,0,.9458-.5938,1.8652-1.8145a26.9192,26.9192,0,0,0,2.1548-3.1357l-.7095-10.1328c-.184-2.6075-.6044-3.63-1.6552-3.63a8.16,8.16,0,0,0-1.2876.0986Z" transform="translate(0.0002 -4.5179)" style="fill: #231f20;stroke: #231f20;stroke-linecap: round;stroke-linejoin: round;stroke-width: 1.4681899547576904px"/>
          <path d="M189.0078,24.56,192.45,11.1924a12.3308,12.3308,0,0,0,.5781-2.9043c0-1.0889-.42-1.5176-1.8916-1.5508v-.43h4.8872v.43a1.9,1.9,0,0,0-1.5766.792,10.2366,10.2366,0,0,0-.9986,2.7061l-4.7031,18.4169H188.43l-4.0728-14.4892h-.0527L180.521,28.6523h-.3418L174.9238,9.6416a7.1854,7.1854,0,0,0-.893-2.2773,1.7868,1.7868,0,0,0-1.524-.627v-.43H178.13v.43c-1.1826.0332-1.7871.3955-1.7871,1.32a8.5786,8.5786,0,0,0,.394,1.9473l3.9678,14.5879h.0527l3.1792-12.0469-.6831-2.4756a7.6787,7.6787,0,0,0-1.1035-2.706,2.1,2.1,0,0,0-1.5767-.627v-.43h5.9908v.43c-1.3926.0332-1.9444.33-1.9444,1.4189a19.9617,19.9617,0,0,0,.6573,3.2012L188.9551,24.56Z" transform="translate(0.0002 -4.5179)" style="fill: #231f20;stroke: #231f20;stroke-linecap: round;stroke-linejoin: round;stroke-width: 1.4681899547576904px"/>
          <path d="M207.0547,25.5166c0,1.7168.394,2.1787,1.8916,2.2119v.4287H203.665v-.4287c1.4454-.0332,1.8916-.4629,1.8916-2.2119V17.9922c0-2.41-.63-3.6309-1.9179-3.6309-1.0249,0-2.2071.8584-3.4947,2.6075v8.5478c0,1.749.3941,2.1787,1.8921,2.2119v.4287H196.728v-.4287c1.55-.0332,1.9185-.4629,1.9185-2.2119V8.6514c0-1.1885-.2368-1.65-.8672-1.65a2.1279,2.1279,0,0,0-1.0513.2969l-.1313-.3624L199.855,5.252h.289V16.11c1.55-2.1124,2.9693-3.168,4.2832-3.168,1.6553,0,2.6275,1.4521,2.6275,4.4551Z" transform="translate(0.0002 -4.5179)" style="fill: #231f20;stroke: #231f20;stroke-linecap: round;stroke-linejoin: round;stroke-width: 1.4681899547576904px"/>
          <path d="M213.4106,12.9424V25.5166c0,1.7168.3941,2.1787,1.9444,2.2119v.4287h-5.334v-.4287c1.4712-.0332,1.8916-.4951,1.8916-2.2119V16.4072c0-1.2207-.2627-1.6826-.9194-1.6826a2.6556,2.6556,0,0,0-1.0777.3623l-.105-.3955,3.3111-1.749Zm-.92-7.2617a1.21,1.21,0,0,1,1.0513,1.32,1.0848,1.0848,0,1,1-2.1021,0A1.2547,1.2547,0,0,1,212.4907,5.6807Z" transform="translate(0.0002 -4.5179)" style="fill: #231f20;stroke: #231f20;stroke-linecap: round;stroke-linejoin: round;stroke-width: 1.4681899547576904px"/>
          <path d="M220.0044,12.9424v3.1347c.499-.6269.92-1.1552,1.2612-1.5175a4.8583,4.8583,0,0,1,3.127-1.6172c1.34,0,2.3384,1.2539,2.5488,3.2676.499-.6934.9194-1.2549,1.2349-1.6182a4.2864,4.2864,0,0,1,2.9428-1.6494c1.8916,0,2.8374,1.5176,2.8374,4.5215v8.0527c0,1.8486.4732,2.1787,1.8135,2.2119v.4287h-5.1767v-.4287c1.4453-.0332,1.8657-.3965,1.8657-2.2119V18.3545c0-3.0693-.5781-3.9932-1.9707-3.9932-.9722,0-2.1284.8584-3.521,2.541v8.6143c0,1.8154.3945,2.1123,1.8393,2.2119v.4287H223.604v-.4287c1.3926-.1,1.8657-.3633,1.8657-2.2119V17.9258c0-2.5088-.63-3.5645-1.9707-3.5645-.9458,0-2.102.8584-3.4946,2.541v8.6143a2.9575,2.9575,0,0,0,.3418,1.7822,2.1769,2.1769,0,0,0,1.4976.43v.4287h-5.2027v-.4287c1.4717-.0332,1.8657-.3965,1.8657-2.2119V16.9355c0-1.749-.2627-2.2109-.9721-2.2109a2.3369,2.3369,0,0,0-.9986.33l-.1313-.3633,3.3105-1.749Z" transform="translate(0.0002 -4.5179)" style="fill: #231f20;stroke: #231f20;stroke-linecap: round;stroke-linejoin: round;stroke-width: 1.4681899547576904px"/>
          <path d="M244.0425,12.9424v5.05h-.3413c-.105-2.5088-1.2349-4.3242-3.1533-4.3242a2.3151,2.3151,0,0,0-2.2334,2.4091,3.8422,3.8422,0,0,0,2.2861,3.2676c1.8916,1.0235,4.2305,2.1455,4.2305,5.1494a4.0674,4.0674,0,0,1-1.1563,3.0362,3.7016,3.7016,0,0,1-2.6538,1.0888,5.2343,5.2343,0,0,1-1.8921-.33A4.3582,4.3582,0,0,0,238,27.959a.443.443,0,0,0-.4731.43h-.3418V23.1074h.3418c.1313,2.7393,1.4189,4.7862,3.6,4.7862a2.2526,2.2526,0,0,0,1.6294-.66,2.6184,2.6184,0,0,0,.6567-1.915,3.23,3.23,0,0,0-.6567-2.0791c-1.6031-2.1778-5.5967-2.5411-5.5967-6.1387,0-2.5088,1.5239-4.1582,3.52-4.1582a3.3856,3.3856,0,0,1,1.34.33,4.1357,4.1357,0,0,0,1.13.2968c.2363,0,.42-.1982.5518-.6269Z" transform="translate(0.0002 -4.5179)" style="fill: #231f20;stroke: #231f20;stroke-linecap: round;stroke-linejoin: round;stroke-width: 1.4681899547576904px"/>
          <path d="M250.0581,12.9424V25.5166c0,1.7168.394,2.1787,1.9443,2.2119v.4287h-5.3339v-.4287c1.4711-.0332,1.8916-.4951,1.8916-2.2119V16.4072c0-1.2207-.2627-1.6826-.9195-1.6826a2.6553,2.6553,0,0,0-1.0776.3623l-.105-.3955,3.311-1.749Zm-.92-7.2617a1.21,1.21,0,0,1,1.0513,1.32,1.0848,1.0848,0,1,1-2.1021,0A1.2546,1.2546,0,0,1,249.1382,5.6807Z" transform="translate(0.0002 -4.5179)" style="fill: #231f20;stroke: #231f20;stroke-linecap: round;stroke-linejoin: round;stroke-width: 1.4681899547576904px"/>
          <path d="M262.8,22.4141a9.4753,9.4753,0,0,1-1.4976,4.456,3.7683,3.7683,0,0,1-3.1792,1.749,3.9583,3.9583,0,0,1-3.416-2.1455,11.2887,11.2887,0,0,1-1.3135-5.8086,9.5087,9.5087,0,0,1,1.4976-5.61,4.5346,4.5346,0,0,1,3.81-2.1123,3.7744,3.7744,0,0,1,2.601,1.0556,3.1559,3.1559,0,0,1,1.1563,2.377c0,.8242-.3418,1.2207-.9986,1.2207s-1.0249-.5283-1.13-1.6172Q260.1335,13.8,258.36,13.8a3.1119,3.1119,0,0,0-2.68,1.6172,7.5872,7.5872,0,0,0-1.0244,4.126,10.5642,10.5642,0,0,0,1.1821,5.3466,3.3825,3.3825,0,0,0,2.8906,2.0137c1.8916,0,3.2056-1.7822,3.7574-4.6543Z" transform="translate(0.0002 -4.5179)" style="fill: #231f20;stroke: #231f20;stroke-linecap: round;stroke-linejoin: round;stroke-width: 1.4681899547576904px"/>
          <path d="M272.7041,25.0215c0,1.5849.2105,2.0137.6567,2.0137.3682,0,.8672-.4288,1.524-1.2872v.66c-.63,1.1553-1.76,2.2109-2.417,2.2109-.7359,0-1.2613-.957-1.2613-2.541a16.4758,16.4758,0,0,1-2.2334,2.0127,2.8675,2.8675,0,0,1-1.6816.5283c-1.55,0-2.6279-1.4521-2.6279-3.7295a4.3331,4.3331,0,0,1,1.498-3.3007,19.1678,19.1678,0,0,1,5.0449-3.0362,11.9328,11.9328,0,0,0-.1577-2.6406c-.1841-1.4521-.7885-2.1123-2.1811-2.2441a1.9745,1.9745,0,0,0-2.0493,2.2119c0,1.4521-.3155,2.1777-.9722,2.1777-.5254,0-.8408-.5283-.8408-1.2871a3.6886,3.6886,0,0,1,1.1562-2.6074,4.0466,4.0466,0,0,1,3.0742-1.2207c2.1285,0,3.4683,1.5508,3.4683,4.0264Zm-1.4976-5.71c-3.5473,1.6172-4.9926,3.1358-4.9926,4.9844,0,1.8154.8149,2.8379,1.8657,2.8379a2.2273,2.2273,0,0,0,1.2612-.3955,13.8393,13.8393,0,0,0,1.8657-1.5186Z" transform="translate(0.0002 -4.5179)" style="fill: #231f20;stroke: #231f20;stroke-linecap: round;stroke-linejoin: round;stroke-width: 1.4681899547576904px"/>
          <path d="M278.6138,5.252V25.5166c0,1.8486.5781,2.1787,1.9443,2.2119v.4287h-5.2812v-.4287c1.34-.0332,1.8393-.3633,1.8393-2.2119V8.7832c0-1.2871-.3154-1.749-.9722-1.749a2.2638,2.2638,0,0,0-.9721.2969l-.1055-.3633,3.2847-1.7158Z" transform="translate(0.0002 -4.5179)" style="fill: #231f20;stroke: #231f20;stroke-linecap: round;stroke-linejoin: round;stroke-width: 1.4681899547576904px"/>
        </g>
        <g>
          <path d="M105.09,47.62h2.3331l-6.9986,19.9942-2.5073.0009-6.27-17.0781h-.0581L85.4072,67.62l-2.5078.001-6.9106-19.99,2.42-.001L84.1826,64.876h.0581l6.1529-17.25,2.6538-.001L99.2,64.8711h.0586Z" transform="translate(0.0002 -4.5179)" style="fill: #231f20;stroke: #231f20;stroke-linecap: round;stroke-linejoin: round;stroke-width: 1.4681899547576904px"/>
          <path d="M110.2549,47.6191l16.5625-.0068v1.9043l-14.4048.0059v6.7763l13.88-.0049v1.9034l-13.88.0048v7.504L127.0508,65.7v1.9043l-16.7959.0068Z" transform="translate(0.0002 -4.5179)" style="fill: #231f20;stroke: #231f20;stroke-linecap: round;stroke-linejoin: round;stroke-width: 1.4681899547576904px"/>
          <path d="M130.99,47.6113l2.1578-.0009V67.6025l-2.1578.001Z" transform="translate(0.0002 -4.5179)" style="fill: #231f20;stroke: #231f20;stroke-linecap: round;stroke-linejoin: round;stroke-width: 1.4681899547576904px"/>
          <path d="M138.4556,47.6084l11.3432-.0039c3.5283-.001,6.7647,1.2021,6.7647,5.4023a4.9235,4.9235,0,0,1-4.0821,4.8448v.0566c2.9449.4463,3.5572,2.2666,3.7032,5.543.0581,1.26.2334,3.6953.729,4.1426l-2.3325.0009c-.3794-.42-.5249-1.9043-.5542-4.0879-.0586-3.5283-1.4581-4.7031-5.0445-4.7021l-8.3691.0029V67.6l-2.1577.001Zm2.1577,9.2949L149.74,56.9c2.3619-.001,4.4908-.8418,4.4908-3.8936,0-2.94-2.3038-3.499-4.2867-3.498l-9.331.0029Z" transform="translate(0.0002 -4.5179)" style="fill: #231f20;stroke: #231f20;stroke-linecap: round;stroke-linejoin: round;stroke-width: 1.4681899547576904px"/>
          <path d="M160.59,47.6006l10.1187-.0039c6.0649-.002,9.2144,3.7217,9.2144,9.9931,0,5.628-3.0621,9.9971-8.8936,9.9991l-10.44.0039Zm2.1582,18.0869,7.8731-.0029c3.7324-.001,6.9687-1.9619,6.9687-8.0938,0-5.292-2.1577-8.0908-6.9687-8.09l-7.8731.0029Z" transform="translate(0.0002 -4.5179)" style="fill: #231f20;stroke: #231f20;stroke-linecap: round;stroke-linejoin: round;stroke-width: 1.4681899547576904px"/>
          <path d="M194.6514,47.084c5.9194-.002,11.3139,3.44,11.3139,10.4961S200.5708,68.082,194.6514,68.084s-11.314-3.44-11.314-10.4951S188.7319,47.0869,194.6514,47.084Zm0,19.0957c4.5781-.001,8.9814-2.5781,8.9814-8.5986s-4.4033-8.5938-8.9814-8.5928-8.981,2.58-8.981,8.6S190.0732,66.1816,194.6514,66.18Z" transform="translate(0.0002 -4.5179)" style="fill: #231f20;stroke: #231f20;stroke-linecap: round;stroke-linejoin: round;stroke-width: 1.4681899547576904px"/>
          <path d="M29.835,82.5176l2.333-.001-6.9986,19.9951-2.5073.001L16.3926,85.4346h-.0581l-6.1822,17.082-2.5078.001L.7339,82.5283l2.42-.001L8.9277,99.7734h.0581l6.1529-17.25,2.6538-.0009,6.1523,17.2451h.0586Z" transform="translate(0.0002 -4.5179)" style="fill: #231f20;stroke: #231f20;stroke-linecap: round;stroke-linejoin: round;stroke-width: 1.4681899547576904px"/>
          <path d="M34.8833,82.5156H37.041v19.9922H34.8833Z" transform="translate(0.0002 -4.5179)" style="fill: #231f20;stroke: #231f20;stroke-linecap: round;stroke-linejoin: round;stroke-width: 1.4681899547576904px"/>
          <path d="M61.0405,98.7188h-.0586c-2.1284,2.9414-4.5781,4.2851-8.66,4.2871-7.0567.0029-10.9058-4.252-10.9058-10.4961,0-6.0479,4.228-10.502,11.1392-10.5039,5.8027-.002,9.5058,3.1318,10.06,6.8281l-2.333.001c-.8457-3.3877-3.9946-4.9268-7.727-4.9248-5.6865.0019-8.8062,3.3349-8.8062,8.5986,0,5.376,2.8574,8.5947,8.398,8.5928,6.24-.002,8.2226-3.419,8.8642-7.003l-7.64.003V92.1982l9.6225-.0039V102.498l-1.6621.001Z" transform="translate(0.0002 -4.5179)" style="fill: #231f20;stroke: #231f20;stroke-linecap: round;stroke-linejoin: round;stroke-width: 1.4681899547576904px"/>
          <path d="M81.8335,88.2109c-.2915-3.416-3.1782-4.31-6.5317-4.3095s-5.89,1.2627-5.89,3.5312c0,2.6035,2.5371,3.2188,7.6109,4.0283,3.7905.6143,7.5815,1.4532,7.5815,5.2891,0,4.9-4.6367,6.2461-8.69,6.2471-5.2779.0019-9.127-1.7325-9.4473-7.1084l2.1577-.001c.3789,4.2,3.2949,5.207,7.29,5.2051,3.12-.001,6.3569-.8135,6.3569-3.9776,0-3.0517-3.79-3.415-7.5815-4.0009-4.9571-.7539-7.61-2.0967-7.61-5.3174,0-4.3682,4.1987-5.7979,8.2227-5.8,4.2573-.001,8.5439,1.4531,8.69,6.2129Z" transform="translate(0.0002 -4.5179)" style="fill: #231f20;stroke: #231f20;stroke-linecap: round;stroke-linejoin: round;stroke-width: 1.4681899547576904px"/>
          <path d="M102.1021,96.4082l-10.9639.0039L88.31,102.4893l-2.3325.0009,9.4477-19.9961,2.5073-.0009,9.4478,19.9892-2.5078.001ZM96.6494,84.5664l-4.6367,9.9414,9.2148-.0029Z" transform="translate(0.0002 -4.5179)" style="fill: #231f20;stroke: #231f20;stroke-linecap: round;stroke-linejoin: round;stroke-width: 1.4681899547576904px"/>
          <path d="M134.0337,82.4805l2.333-.001-6.9985,19.9951h-2.5074l-6.2695-17.0771h-.0581l-6.1821,17.082-2.5078.001-6.9107-19.9893,2.42-.001,5.7735,17.2461h.0586l6.1523-17.2509,2.6538-.001,6.1524,17.2461h.0585Z" transform="translate(0.0002 -4.5179)" style="fill: #231f20;stroke: #231f20;stroke-linecap: round;stroke-linejoin: round;stroke-width: 1.4681899547576904px"/>
          <path d="M174.687,82.4658l2.333-.001L170.0215,102.46h-2.5073l-6.27-17.0772h-.0581l-6.1821,17.082-2.5078.001-6.9107-19.9892,2.42-.001L153.78,99.7217h.0586l6.1523-17.251,2.6538-.001,6.1524,17.2461h.0586Z" transform="translate(0.0002 -4.5179)" style="fill: #231f20;stroke: #231f20;stroke-linecap: round;stroke-linejoin: round;stroke-width: 1.4681899547576904px"/>
          <path d="M198.2227,94.7217c0,3.64-1.05,8.2324-9.3018,8.2353s-9.3022-4.5888-9.3022-8.2285V82.4639l2.1582-.001V94.7275c0,5.2354,3.5278,6.3262,7.144,6.3252s7.144-1.0947,7.144-6.33V82.458l2.1578-.001Z" transform="translate(0.0002 -4.5179)" style="fill: #231f20;stroke: #231f20;stroke-linecap: round;stroke-linejoin: round;stroke-width: 1.4681899547576904px"/>
          <path d="M201.2876,100.5439l15.4546-16.1894-14.4634.0059V82.4561l17.3789-.0069v1.9043l-15.542,16.19,15.7754-.0059v1.9043l-18.6035.0068Z" transform="translate(0.0002 -4.5179)" style="fill: #231f20;stroke: #231f20;stroke-linecap: round;stroke-linejoin: round;stroke-width: 1.4681899547576904px"/>
          <path d="M223.3931,100.5361l15.4546-16.1894-14.4634.0058V82.4482l17.3789-.0068v1.9043l-15.542,16.19,15.7754-.0059v1.9043l-18.6035.0068Z" transform="translate(0.0002 -4.5179)" style="fill: #231f20;stroke: #231f20;stroke-linecap: round;stroke-linejoin: round;stroke-width: 1.4681899547576904px"/>
          <path d="M245.5269,82.44l2.1582-.0009v18.0878l13.2089-.0048v1.9043l-15.3671.0058Z" transform="translate(0.0002 -4.5179)" style="fill: #231f20;stroke: #231f20;stroke-linecap: round;stroke-linejoin: round;stroke-width: 1.4681899547576904px"/>
          <path d="M264.6284,82.4336l16.5625-.0059V84.332l-14.4048.0049v6.7764l13.88-.0049v1.9033l-13.88.0049v7.5039l14.6382-.0059v1.9043l-16.7959.0069Z" transform="translate(0.0002 -4.5179)" style="fill: #231f20;stroke: #231f20;stroke-linecap: round;stroke-linejoin: round;stroke-width: 1.4681899547576904px"/>
          <path d="M85.23,117.3672l2.333-.001-6.9985,19.9951H78.0571l-6.27-17.0771H71.73l-6.1821,17.082-2.5078.001-6.9107-19.9893,2.42-.0009,5.7735,17.246h.0585l6.1524-17.2509,2.6538-.001L79.34,134.6172h.0586Z" transform="translate(0.0002 -4.5179)" style="fill: #231f20;stroke: #231f20;stroke-linecap: round;stroke-linejoin: round;stroke-width: 1.4681899547576904px"/>
          <path d="M108.7656,129.623c0,3.64-1.05,8.2325-9.3017,8.2354s-9.3023-4.5889-9.3023-8.2285V117.3652l2.1582-.0009v12.2646c0,5.2354,3.5279,6.3262,7.1441,6.3252s7.144-1.0947,7.144-6.33V117.3594l2.1577-.001Z" transform="translate(0.0002 -4.5179)" style="fill: #231f20;stroke: #231f20;stroke-linecap: round;stroke-linejoin: round;stroke-width: 1.4681899547576904px"/>
          <path d="M134.7207,117.35l3.062-.0019V137.34l-2.1582.001V120.0645h-.0581l-9.1851,17.28h-1.9829l-9.1562-17.3h-.0581v17.3037l-2.1582.001V117.3574l3.1494-.0019,9.2729,17.3857Z" transform="translate(0.0002 -4.5179)" style="fill: #231f20;stroke: #231f20;stroke-linecap: round;stroke-linejoin: round;stroke-width: 1.4681899547576904px"/>
          <path d="M142.2759,117.3467l11.2265-.0039c3.2076-.002,6.2691,1.5371,6.2691,5.7656,0,3.7793-2.5952,5.8242-7.2315,5.8262l-8.1064.0029v8.4l-2.1577.001Zm2.1577,9.6875,8.34-.003c3.6158-.0009,4.6656-1.5986,4.6656-3.9218,0-2.9961-1.7495-3.8633-4.2281-3.8623l-8.7773.0029Z" transform="translate(0.0002 -4.5179)" style="fill: #231f20;stroke: #231f20;stroke-linecap: round;stroke-linejoin: round;stroke-width: 1.4681899547576904px"/>
          <path d="M175.1118,131.251l-10.9639.0039-2.8286,6.0771-2.3325.001,9.4478-19.9961,2.5073-.001,9.4477,19.9893-2.5078.001Zm-5.4526-11.8418-4.6367,9.9414,9.2148-.0029Z" transform="translate(0.0002 -4.5179)" style="fill: #231f20;stroke: #231f20;stroke-linecap: round;stroke-linejoin: round;stroke-width: 1.4681899547576904px"/>
          <path d="M184.1826,117.3311l2.5952-.001,14.5508,17.0752h.0586v-17.08l2.1577-.001v19.9922l-2.5078.001-14.6382-17.0742h-.0581v17.08h-2.1582Z" transform="translate(0.0002 -4.5179)" style="fill: #231f20;stroke: #231f20;stroke-linecap: round;stroke-linejoin: round;stroke-width: 1.4681899547576904px"/>
          <path d="M215.853,128.9121l-9.36-11.5889,2.7993-.0009,7.64,9.5175,7.64-9.5234,2.7993-.001-9.36,11.5957v8.4l-2.1577.001Z" transform="translate(0.0002 -4.5179)" style="fill: #231f20;stroke: #231f20;stroke-linecap: round;stroke-linejoin: round;stroke-width: 1.4681899547576904px"/>
        </g>
        <line x1="1.8499" y1="35.5482" x2="282.8188" y2="35.5485" style="fill: none;stroke: #231f20;stroke-linecap: round;stroke-linejoin: round;stroke-width: 1.7426633651224px"/>
        <line x1="1.8499" y1="69.5282" x2="282.8187" y2="69.5285" style="fill: none;stroke: #231f20;stroke-linecap: round;stroke-linejoin: round;stroke-width: 1.7426633651224px"/>
      </g>
    </g>
  </g>
</svg>
