<svg xmlns="http://www.w3.org/2000/svg" viewBox="0 0 231.0206 231.0197">
                    <path d="M115.03,231.02c63.6924,0,115.7249-51.818,115.9895-115.51A115.0077,115.0077,0,0,0,115.9905,0a115.5108,115.5108,0,0,0-.96,231.02Z" style="fill: #ffd931"></path>
                    <path d="M115.1309,206.7665a91.82,91.82,0,0,0,91.6356-91.2571A90.86,90.86,0,0,0,115.89,24.2532a91.2574,91.2574,0,0,0-.7588,182.5133Zm36.5944-134.594a91.1941,91.1941,0,0,0,25.1136-16.0686A84.0245,84.0245,0,0,1,200.7,112.4955H159.5618c.0361-.5862.0847-1.5721.09-2.9112C159.679,103.3068,158.785,89.26,151.7253,72.1725Zm-39.83,1.2157a84.4217,84.4217,0,0,1-24.0376-4.5977,120.21,120.21,0,0,1,24.1945-33.006Zm6.191-39.0672a119.5462,119.5462,0,0,1,25.4651,34.47,84.8515,84.8515,0,0,1-25.6273,4.6689Zm31.1118,32.2868A125.0072,125.0072,0,0,0,122.971,30.62,84.2427,84.2427,0,0,1,172.3457,51.92,85.07,85.07,0,0,1,149.1985,66.6078Zm-66.969,0A84.1225,84.1225,0,0,1,59.203,51.92,84.9945,84.9945,0,0,1,108.7561,30.62,126.4726,126.4726,0,0,0,82.23,66.6078Zm3.0333,7.7631a90.4689,90.4689,0,0,0,26.6077,5.06l-.137,33.0646H77.529c-.0162-.2159-.0757-1.1449-.0685-2.6792A94.5664,94.5664,0,0,1,85.2628,74.3709Zm32.6365,5.1254a90.9191,90.9191,0,0,0,28.2028-5.1254,94.1579,94.1579,0,0,1,7.5066,35.4432c-.0072,1.5437-.0739,2.4746-.0919,2.6814H117.7623ZM54.6756,56.1039a90.2027,90.2027,0,0,0,24.98,16.0686c-7.2021,17.0879-8.2114,31.1343-8.2385,37.4118-.0054,1.3391.0343,2.325.0685,2.9112H30.346A84.7452,84.7452,0,0,1,54.6756,56.1039Zm145.9972,62.42a85.7675,85.7675,0,0,1-85.5166,82.2148,84.9032,84.9032,0,0,1-84.8336-82.2148Z" style="fill: #231f20"></path>
                    <path d="M69.5033,172.7494c8.4871,0,15.41-4.0921,15.4315-9.1224s-6.8669-9.122-15.3558-9.122-15.4117,4.0917-15.4315,9.122C54.1258,168.6573,61.0143,172.7494,69.5033,172.7494Z" style="fill: #231f20"></path>
                    <path d="M145.15,163.627c-.0216,5.03,6.8669,9.1224,15.3558,9.1224s15.4117-4.0921,15.4333-9.1224c.02-5.03-6.8686-9.122-15.3576-9.122C152.0948,154.505,145.1721,158.5967,145.15,163.627Z" style="fill: #231f20"></path>
                    <path d="M115.0516,165.75a7.9825,7.9825,0,0,0,7.9663-7.9338,7.9029,7.9029,0,0,0-7.9014-7.9339,7.9828,7.9828,0,0,0-7.9663,7.9339A7.9028,7.9028,0,0,0,115.0516,165.75Z" style="fill: #231f20"></path>
                    <path class="eyes eyes-left" d="M73.4739,126.1A13.1418,13.1418,0,0,0,67.79,143.6938c.009.0162.0177.0344.0263.0526a13.0578,13.0578,0,0,0,17.5805,5.6982,13.144,13.144,0,0,0,5.6848-17.5955c-.009-.0162-.0173-.0342-.0267-.0507A13.0579,13.0579,0,0,0,73.4739,126.1Zm2.8691,2.3583.0207.05a.9466.9466,0,0,1-.2478.79c-1.9642,2.7036-2.06,6.75-.2423,10.3066a10.7792,10.7792,0,0,0,8.1983,5.7922q.23.0291.46.0507a.7138.7138,0,0,1,.6611.4822c.0389.2-.1.3927-.3966.5456-.0287.0141-.0593.0291-.088.041l-.3089.1406c-.1121.052-.2252.1031-.3379.1523A10.1768,10.1768,0,0,1,75.43,128.3944l.004-.0015a.7591.7591,0,0,1,.8731.0235Z" style="fill: #231f20"></path>
                    <path class="eyes eyes-right" d="M144.9037,126.1a13.1409,13.1409,0,0,0-5.6844,17.5936c.0091.0162.0177.0344.026.0523a13.0577,13.0577,0,0,0,17.5809,5.6985,13.1444,13.1444,0,0,0,5.6848-17.5955c-.0091-.0162-.0185-.0327-.0264-.05A13.0582,13.0582,0,0,0,144.9037,126.1Zm2.8691,2.3583.0207.05a.9462.9462,0,0,1-.2478.79c-1.9642,2.7036-2.06,6.75-.2422,10.3067a10.7793,10.7793,0,0,0,8.1982,5.7922q.23.029.46.0507a.7135.7135,0,0,1,.6611.4822c.039.2-.1.3927-.3965.5456-.0288.0141-.0594.0291-.0881.0409l-.3089.1407c-.112.0519-.2252.1031-.3379.1522a10.1768,10.1768,0,0,1-8.6321-18.4156l.004-.0014a.7589.7589,0,0,1,.8731.0234Z" style="fill: #231f20"></path>
                    <path d="M114.4208,191.1917a18.5388,18.5388,0,0,0,18.4306-16.7111,1.5944,1.5944,0,0,0-1.5987-1.7312H97.7421a1.6111,1.6111,0,0,0-1.6149,1.7312A18.35,18.35,0,0,0,114.4208,191.1917Z" style="fill: #231f20"></path>
                    <g class="text">
                        <path d="M61.2162,195.2992a.6434.6434,0,0,0-.8958.1586l-2.2186,3.1532-2.8693-2.0137a.6441.6441,0,0,0-.8958.1591l-.4632.6587a.6413.6413,0,0,0,.1532.8958l2.8693,2.0132-1.1517,1.6365-3.7452-2.6273a.6437.6437,0,0,0-.8957.1586l-.465.6592a.6438.6438,0,0,0,.155.8962l5.0933,3.5726a.6427.6427,0,0,0,.8958-.1586l5.4106-7.69a.642.642,0,0,0-.155-.8957Z" style="fill: #231f20"></path>
                        <path d="M54.544,190.6078a.6367.6367,0,0,0-.2307-.4335l-.7768-.6362a.6447.6447,0,0,0-.9066.0919L46.666,196.9a.64.64,0,0,0,.0883.9052l.775.6362a.6441.6441,0,0,0,.4074.1446q.0324,0,.0649-.0027a.65.65,0,0,0,.4343-.2334l5.9657-7.27A.6475.6475,0,0,0,54.544,190.6078Z" style="fill: #231f20"></path>
                        <path d="M50.5969,187.1113l-.67-.6547a.6446.6446,0,0,0-.4487-.1816h-.0091a.6407.6407,0,0,0-.4523.1946l-4.1472,4.2472.6975-8.1893a.6394.6394,0,0,0-.1892-.5123l-.5263-.515a.7005.7005,0,0,0-.4578-.1825.6426.6426,0,0,0-.4524.1946l-6.5749,6.7322a.6429.6429,0,0,0,.009.91l.6687.6542a.6171.6171,0,0,0,.456.1821.6453.6453,0,0,0,.4542-.1947l4.1489-4.2472-.6993,8.1889a.6392.6392,0,0,0,.1893.5128l.5263.5154a.6433.6433,0,0,0,.4487.1825h.009a.6408.6408,0,0,0,.4524-.1951l6.5749-6.7321A.6429.6429,0,0,0,50.5969,187.1113Z" style="fill: #231f20"></path>
                        <path d="M42.4991,179.1927a.64.64,0,0,0-.1388-.4726l-2.0511-2.5553a5,5,0,0,0-3.48-1.9843,5.4853,5.4853,0,0,0-3.893,1.34c-2.5286,2.0357-2.9053,4.9189-.957,7.3467l2.0528,2.5548a.6382.6382,0,0,0,.4993.2388.651.651,0,0,0,.4055-.1424l7.3246-5.8941A.6508.6508,0,0,0,42.4991,179.1927Zm-5.8882-2.7981c.027,0,.0558.0005.0829.0009a2.6137,2.6137,0,0,1,1.9825,1.0823L39.7,178.7507l-5.0663,4.0755-1.0219-1.2724a2.6154,2.6154,0,0,1-.629-2.1709,3.5981,3.5981,0,0,1,1.386-2.0781A3.646,3.646,0,0,1,36.6109,176.3946Z" style="fill: #231f20"></path>
                        <path d="M30.7569,161.8976l-.4758-.884a.64.64,0,0,0-.87-.2577l-3.8624,2.0911-5.8017-1.0647a.6451.6451,0,0,0-.6849.9394l.5389,1.0017a.6335.6335,0,0,0,.4452.3262l4.212.7831-1.6815,3.9048a.6432.6432,0,0,0,.0252.56l.5713,1.06a.6408.6408,0,0,0,.5642.3357l.0324-.0009a.6464.6464,0,0,0,.5623-.3929l2.3124-5.4434,3.8516-2.0862a.6435.6435,0,0,0,.2613-.8724Z" style="fill: #231f20"></path>
                        <path d="M22.9492,158.5886a5.7576,5.7576,0,0,0,3.15-2.9216,5.4562,5.4562,0,0,0-2.8693-7.1778,6.0144,6.0144,0,0,0-7.4364,2.9991,5.3108,5.3108,0,0,0-.0541,4.1877,5.2453,5.2453,0,0,0,4.9438,3.3641A6.059,6.059,0,0,0,22.9492,158.5886Zm-5.142-3.7448a3.127,3.127,0,0,1,1.9862-4.1517,3.9474,3.9474,0,0,1,1.4689-.2964,3.169,3.169,0,0,1,1.1138.196,2.9372,2.9372,0,0,1,1.71,1.72A3.1252,3.1252,0,0,1,22.1,156.4627,3.1023,3.1023,0,0,1,17.8072,154.8438Z" style="fill: #231f20"></path>
                        <path d="M22.3851,143.8343a5.6893,5.6893,0,0,0-1.64-6.1815,3.9366,3.9366,0,0,0-3.1667-.1789l-6.0954,1.64a.6445.6445,0,0,0-.4578.7889l.2577.9715a.6454.6454,0,0,0,.7876.4537l6.0937-1.64a2.1727,2.1727,0,0,1,1.5319-.0337,2.0834,2.0834,0,0,1,.7985,1.3778,2.1055,2.1055,0,0,1-.009,1.5942,2.1881,2.1881,0,0,1-1.3446.74l-6.0954,1.6406a.6451.6451,0,0,0-.456.7885l.2559.97a.6389.6389,0,0,0,.2992.3907.6448.6448,0,0,0,.4884.0635l6.0937-1.6392A3.9688,3.9688,0,0,0,22.3851,143.8343Z" style="fill: #231f20"></path>
                        <path d="M20.5846,133.4326l-.146-.9944a.64.64,0,0,0-.73-.5394l-3.6732.5565-.2739-1.8559c-.1442-.9706-.0325-1.3189.0847-1.44a2.5634,2.5634,0,0,1,1.1661-.3212l.0739-.0113,2.1213-.3208a.6462.6462,0,0,0,.5425-.7327l-.2685-1.8293a.64.64,0,0,0-.7318-.54l-.4632.07a.6455.6455,0,0,0-.5425.7344l.0289.1965.0036.0144a2.802,2.802,0,0,1-.29.0572l-.6831.1027a3.8827,3.8827,0,0,0-2.3754.8971,2.7031,2.7031,0,0,0-2.5053-.8353c-1.9068.29-2.8693,1.6905-2.5791,3.7515l.6849,4.64a.6387.6387,0,0,0,.2523.4208.65.65,0,0,0,.4776.1185l9.2856-1.4071A.6463.6463,0,0,0,20.5846,133.4326Zm-8.0888-4.6112c.4361,0,.9191.2163,1.0778,1.2963l.3911,2.6517-2.1088.3194-.4487-3.049a.9108.9108,0,0,1,.84-1.1977A1.6,1.6,0,0,1,12.4958,128.8214Z" style="fill: #231f20"></path>
                        <path d="M18.8454,116.69a.6468.6468,0,0,0,.1892-.4556v-1.0066a.6382.6382,0,0,0-.64-.6411H18.393l-9.3847.0284a.6468.6468,0,0,0-.6453.6447l-.0018,1.0062a.6393.6393,0,0,0,.6417.6416h0l9.3865-.0279A.643.643,0,0,0,18.8454,116.69Z" style="fill: #231f20"></path>
                        <path d="M19.7015,104.1043l.0648-.7344a.6393.6393,0,0,0-.5839-.6957l-9.3451-.7913a.6457.6457,0,0,0-.6975.5862l-.0847.9346a.641.641,0,0,0,.584.6961l5.8972.4992-6.7677,4.6748a.6436.6436,0,0,0-.2758.4754l-.0649.7344a.64.64,0,0,0,.584.6948l9.345.7921a.55.55,0,0,0,.0559.0019.6446.6446,0,0,0,.6416-.5881l.0847-.9354a.6417.6417,0,0,0-.5839-.6961l-5.8954-.4993,6.7659-4.6743A.65.65,0,0,0,19.7015,104.1043Z" style="fill: #231f20"></path>
                        <path d="M21.85,92.5383l.155-.7218a.6388.6388,0,0,0-.4938-.7619l-9.1774-1.9285a.6518.6518,0,0,0-.7642.497l-.1965.9187a.6388.6388,0,0,0,.4939.7619l5.789,1.2171-7.285,3.8164a.6538.6538,0,0,0-.3334.4366l-.155.7214a.6456.6456,0,0,0,.09.4844.6371.6371,0,0,0,.4055.278l9.1775,1.9289a.6188.6188,0,0,0,.1315.014.6492.6492,0,0,0,.6327-.511l.1964-.9183a.6425.6425,0,0,0-.4938-.7615l-5.7909-1.2165,7.2868-3.8178A.6459.6459,0,0,0,21.85,92.5383Z" style="fill: #231f20"></path>
                        <path d="M22.4392,88.6485a.6458.6458,0,0,0,.6128-.44l2.0817-6.1671a.6407.6407,0,0,0-.4038-.8138l-.7623-.255a.6454.6454,0,0,0-.8147.4068l-1.5536,4.6036-2.2745-.7587,1.1246-3.3312a.6406.6406,0,0,0-.4037-.8137l-.7606-.2546a.646.646,0,0,0-.8164.4073l-1.1229,3.3312-1.8924-.6313,1.5518-4.6031a.6409.6409,0,0,0-.4037-.8138l-.7606-.2541a.6426.6426,0,0,0-.8147.4064l-2.0817,6.1676a.6408.6408,0,0,0,.4038.8137l8.889,2.9666A.63.63,0,0,0,22.4392,88.6485Z" style="fill: #231f20"></path>
                        <path d="M24.5623,70.4081a2.6967,2.6967,0,0,0-1.6293-2.0759c-1.7446-.8052-3.3217-.1617-4.21,1.7257l-1.979,4.263a.6427.6427,0,0,0,.3118.8534l8.5106,3.9237a.6442.6442,0,0,0,.8543-.3154l.4254-.9129a.6439.6439,0,0,0-.3136-.8543l-3.3668-1.5523.7912-1.7054c.3911-.8431.6633-1.09.8237-1.149.2253-.0829.6506.1117,1.1877.3605l.0667.031.0018,0,1.9447.8962a.6445.6445,0,0,0,.8543-.3163l.78-1.68a.6411.6411,0,0,0-.3118-.8534l-.4253-.1965a.6444.6444,0,0,0-.8543.3163l-.0847.1816-.0072.014c-.0613-.0216-.15-.0559-.274-.1131l-.6218-.2866A3.8491,3.8491,0,0,0,24.5623,70.4081Zm-5.2267,3.2892,1.3013-2.8026a1.0581,1.0581,0,0,1,.6308-.6453,1.1424,1.1424,0,0,1,.7263.1037c.44.2027.9588.6092.4055,1.7987l-1.13,2.4367Z" style="fill: #231f20"></path>
                        <path d="M28.0138,54.1966,25.75,57.452a.6414.6414,0,0,0,.1586.8949l7.7031,5.3394a.6466.6466,0,0,0,.3659.1135.6426.6426,0,0,0,.5317-.2775l.5749-.8273a.6429.6429,0,0,0-.16-.8949l-3.2694-2.2659,1.3229-1.9019c1.2454-1.8136,1.0633-3.4754-.4975-4.56C31.7356,52.5583,29.8143,51.6386,28.0138,54.1966Zm.3947,3.0869,1.3427-1.9312a1.4237,1.4237,0,0,1,.7768-.6416.8853.8853,0,0,1,.6777.1938c.3767.26.68.6425.0775,1.5085l-1.3445,1.9321Z" style="fill: #231f20"></path>
                        <path d="M33.3721,47.514a.65.65,0,0,0-.4344.2343L32.3,48.53a.6416.6416,0,0,0,.09.9048L39.6514,55.36a.6406.6406,0,0,0,.4055.1442.5229.5229,0,0,0,.0649-.0036.6478.6478,0,0,0,.4362-.2343l.6362-.7808a.643.643,0,0,0-.0883-.9048l-7.2634-5.9251A.6363.6363,0,0,0,33.3721,47.514Z" style="fill: #231f20"></path>
                        <path d="M42.1548,40.4435a.6531.6531,0,0,0-.1982-.4506l-.5822-.5542a.6442.6442,0,0,0-.91.0234L35.962,44.1752a.6442.6442,0,0,0,.02.9093l6.775,6.47a.6435.6435,0,0,0,.91-.0225l4.504-4.714a.644.644,0,0,0-.02-.9092l-.58-.5543a.6869.6869,0,0,0-.4578-.177.65.65,0,0,0-.4524.2l-3.3613,3.519L41.5655,47.241l2.4331-2.5467a.6425.6425,0,0,0-.018-.9093l-.5822-.5551a.6354.6354,0,0,0-.46-.1775.6516.6516,0,0,0-.4506.2l-2.4313,2.5467-1.4437-1.3779,3.3614-3.5181A.6525.6525,0,0,0,42.1548,40.4435Z" style="fill: #231f20"></path>
                        <path d="M46.6877,33.5253a5.2428,5.2428,0,0,0-1.9393,3.7173,5.7854,5.7854,0,0,0,1.4256,4.01,5.7163,5.7163,0,0,0,3.72,2.0943,4.8953,4.8953,0,0,0,.5551.0315,5.4034,5.4034,0,0,0,3.4677-1.3094c2.1844-1.8285,2.6782-4.3269,1.2868-6.52a.6379.6379,0,0,0-.4433-.29.65.65,0,0,0-.5119.1442l-.7822.6556a.645.645,0,0,0-.1424.8232,2.5612,2.5612,0,0,1-.8327,3.4826v0a2.9636,2.9636,0,0,1-2.3412.73,3.5834,3.5834,0,0,1-2.2132-1.318,3.654,3.654,0,0,1-.9264-2.402,2.871,2.871,0,0,1,1.103-2.1452c1.249-1.0454,2.5178-1.1184,3.5722-.2032a.6435.6435,0,0,0,.8345.0058l.784-.6551a.6457.6457,0,0,0,.0252-.9674C51.417,31.6518,48.8739,31.6968,46.6877,33.5253Z" style="fill: #231f20"></path>
                        <path d="M59.0822,36.8389a.6415.6415,0,0,0,.89.1838l5.45-3.5713a.6533.6533,0,0,0,.2776-.4078.6367.6367,0,0,0-.09-.4839l-.44-.6723a.6425.6425,0,0,0-.89-.1834L60.2141,34.37l-1.31-2.006,2.9414-1.93a.6453.6453,0,0,0,.1892-.89l-.44-.6723a.632.632,0,0,0-.4055-.2767.65.65,0,0,0-.4849.0919l-2.9432,1.93-1.09-1.6694,4.0679-2.6666a.6435.6435,0,0,0,.2775-.4073.6356.6356,0,0,0-.09-.4839l-.44-.6723a.6425.6425,0,0,0-.89-.1838l-5.4484,3.5717a.6441.6441,0,0,0-.1875.8908Z" style="fill: #231f20"></path>
                        <path d="M73.1944,26.726a2.0958,2.0958,0,0,0,.8832-.1973,2.043,2.043,0,0,0,1.0093-2.7247,2.0006,2.0006,0,0,0-1.1517-1.0584,2.0813,2.0813,0,0,0-2.6458,1.2476,2.0486,2.0486,0,0,0,1.905,2.7328Z" style="fill: #231f20"></path>
                        <path d="M85.0267,24.3677a.6362.6362,0,0,0,.1838-.0271l5.9819-1.7861a.6445.6445,0,0,0,.4344-.8L91.4,20.9838a.6344.6344,0,0,0-.3082-.3821.6435.6435,0,0,0-.49-.05l-4.3995,1.3138-2.24-7.6049a.64.64,0,0,0-.7984-.4325l-.9642.2884a.6418.6418,0,0,0-.4362.8l2.6494,8.9918a.6425.6425,0,0,0,.6146.46Z" style="fill: #231f20"></path>
                        <path d="M99.6742,11.3963l-.1478-.79a.6387.6387,0,0,0-.75-.5109l-6.3928,1.2233a.6457.6457,0,0,0-.5137.7529l1.7285,9.2171a.6394.6394,0,0,0,.2685.4118.6477.6477,0,0,0,.3605.11.6088.6088,0,0,0,.1207-.0112l6.3929-1.2238a.6457.6457,0,0,0,.5136-.7534l-.1478-.79a.6412.6412,0,0,0-.7515-.51l-4.7708.9138-.4416-2.3574,3.4533-.6615a.645.645,0,0,0,.5137-.7529l-.1478-.79a.6416.6416,0,0,0-.7516-.5109l-3.4533.661L94.39,13.0626l4.7707-.9138A.6474.6474,0,0,0,99.6742,11.3963Z" style="fill: #231f20"></path>
                        <path d="M117.8092,11.782c-.0126-.8957-.3749-2.9634-3.4136-2.9634-.0289,0-.0613,0-.0919.0009l-3.9561.077a.6472.6472,0,0,0-.6327.6556l.1442,9.3852a.6393.6393,0,0,0,.64.6308h.0127l1.0057-.0189a.6479.6479,0,0,0,.6344-.6556L112.09,14.91l2.3106-.0442C116.5962,14.81,117.838,13.6862,117.8092,11.782Zm-2.462-.62a.8779.8779,0,0,1,.2361.6629c.0072.4582-.128.9286-1.1787.9493l-2.3466.046-.0289-1.865,2.3466-.0455A1.4219,1.4219,0,0,1,115.3472,11.162Z" style="fill: #231f20"></path>
                        <path d="M122.6466,9.0164l-1-.0906a.6445.6445,0,0,0-.7011.5831l-.5911,6.2766a3.9334,3.9334,0,0,0,.7083,3.0891A4.3478,4.3478,0,0,0,124.157,20.14q.4163.038.7894.0379a3.796,3.796,0,0,0,2.4872-.73,3.9658,3.9658,0,0,0,1.276-2.9108l.5912-6.2766a.6418.6418,0,0,0-.58-.6988l-1.002-.09a.6473.6473,0,0,0-.7012.583l-.5911,6.2766a2.17,2.17,0,0,1-.5029,1.4486,3.0475,3.0475,0,0,1-3.0639-.2753,2.1817,2.1817,0,0,1-.2235-1.5148l.5912-6.2757A.6409.6409,0,0,0,122.6466,9.0164Z" style="fill: #231f20"></path>
                        <path d="M130.9517,18.9607l-.2054.985a.6413.6413,0,0,0,.4992.7592l7.0867,1.4531a.7055.7055,0,0,0,.13.0126.6461.6461,0,0,0,.6326-.5145l.1767-.8525a.6406.6406,0,0,0-.4975-.7592l-4.8176-.9882,6.62-5.2339a.6428.6428,0,0,0,.2325-.3745l.2073-.9845a.6419.6419,0,0,0-.4992-.76L133.43,10.25a.65.65,0,0,0-.7624.5019l-.1766.8534a.6411.6411,0,0,0,.4974.7588l4.8177.9886-6.6218,5.233A.6555.6555,0,0,0,130.9517,18.9607Z" style="fill: #231f20"></path>
                        <path d="M141.5674,23.0105l6.88,2.2322a.6371.6371,0,0,0,.1982.0315.644.644,0,0,0,.6128-.4451l.274-.83a.6453.6453,0,0,0-.0379-.4911.6349.6349,0,0,0-.373-.32l-4.6771-1.5167,7.1589-4.4689a.6523.6523,0,0,0,.2721-.3478l.3136-.9566a.6422.6422,0,0,0-.4109-.81l-6.88-2.2318a.6436.6436,0,0,0-.49.04.652.652,0,0,0-.3208.3744l-.2722.8295a.64.64,0,0,0,.4109.8111l4.6753,1.5162-7.1589,4.4693a.6484.6484,0,0,0-.2721.3469l-.3136.9571A.6424.6424,0,0,0,141.5674,23.0105Z" style="fill: #231f20"></path>
                        <path d="M160.2071,27.9291a2.0108,2.0108,0,0,0,.64-.1046,2.0585,2.0585,0,0,0,1.1877-1.0354,2.03,2.03,0,0,0-.912-2.7395,2.0447,2.0447,0,0,0-1.59-.1118,2.0511,2.0511,0,0,0-.2541,3.7687A2.063,2.063,0,0,0,160.2071,27.9291Z" style="fill: #231f20"></path>
                        <path d="M172.6629,25.37a.642.642,0,0,0-.8939.1676l-5.3349,7.7491a.6418.6418,0,0,0,.1622.8939l.8273.5687a.6426.6426,0,0,0,.364.1122.6228.6228,0,0,0,.119-.0113.6481.6481,0,0,0,.4127-.2686l2.188-3.1774L173.4,33.3892a.6414.6414,0,0,0,.4812.1018.652.652,0,0,0,.4145-.2694l.456-.6637a.6427.6427,0,0,0-.164-.8944l-2.8909-1.9862,1.1354-1.6491,3.7759,2.5908a.643.643,0,0,0,.894-.1671l.4577-.6637a.6417.6417,0,0,0-.1622-.8949Z" style="fill: #231f20"></path>
                        <path d="M181.0726,31.3846a.6438.6438,0,0,0-.903.1086l-5.8323,7.3778a.6442.6442,0,0,0,.1045.9034l.7894.6222a.6356.6356,0,0,0,.3965.137.6183.6183,0,0,0,.0757-.004.65.65,0,0,0,.4308-.2411l5.8323-7.3792a.6527.6527,0,0,0,.1352-.4749.6444.6444,0,0,0-.24-.4294Z" style="fill: #231f20"></path>
                        <path d="M186.0884,35.4889l-.5371-.5037a.6425.6425,0,0,0-.9083.03l-6.447,6.8479a.6427.6427,0,0,0-.1748.4605.6276.6276,0,0,0,.2019.4488l.6813.6421a.645.645,0,0,0,.91-.03l4.0661-4.3193-.5479,8.1952a.6431.6431,0,0,0,.2.5092l.5371.5046a.64.64,0,0,0,.44.1735.6478.6478,0,0,0,.47-.2032l6.4451-6.8489a.6427.6427,0,0,0,.1748-.4614.6256.6256,0,0,0-.2018-.4478l-.6813-.6417a.6447.6447,0,0,0-.91.03l-4.0642,4.32.5461-8.1952A.643.643,0,0,0,186.0884,35.4889Z" style="fill: #231f20"></path>
                        <path d="M186.4777,50.5419a.6355.6355,0,0,0,.146.47l2.0979,2.517a4.9411,4.9411,0,0,0,3.8119,1.9424,5.61,5.61,0,0,0,3.574-1.4333c2.4927-2.0816,2.8171-4.9712.8237-7.3625l-2.1-2.5178a.6357.6357,0,0,0-.4344-.2275.6449.6449,0,0,0-.47.1477l-7.22,6.0275A.648.648,0,0,0,186.4777,50.5419Zm5.8558,2.69a2.6134,2.6134,0,0,1-2.0024-1.0472l-1.0453-1.2526,4.9906-4.1678,1.0453,1.2539a2.611,2.611,0,0,1,.6687,2.1588,3.5877,3.5877,0,0,1-1.3481,2.1033A3.5433,3.5433,0,0,1,192.3335,53.2319Z" style="fill: #231f20"></path>
                        <path d="M206.5971,60.61a.6457.6457,0,0,0-.0343-.5583l-.5911-1.0494a.6248.6248,0,0,0-.602-.3244.6454.6454,0,0,0-.5551.4037L202.6013,64.57l-3.8137,2.1587a.6439.6439,0,0,0-.2451.8777l.4938.8751a.6409.6409,0,0,0,.876.2419l3.8245-2.165,5.8233.9552a.6469.6469,0,0,0,.6687-.9525L209.67,65.57a.6422.6422,0,0,0-.4523-.3177l-4.23-.7047Z" style="fill: #231f20"></path>
                        <path d="M206.4078,70.7586a5.7473,5.7473,0,0,0-3.0928,2.9783A5.3286,5.3286,0,0,0,208.2138,81.2a6.1109,6.1109,0,0,0,2.3844-.5,5.7509,5.7509,0,0,0,3.0946-2.9779,5.4569,5.4569,0,0,0-3.0008-7.12A5.7227,5.7227,0,0,0,206.4078,70.7586Zm-1.0129,3.8642a3.5849,3.5849,0,0,1,1.9033-1.7546,3.917,3.917,0,0,1,1.5265-.3244,3.1657,3.1657,0,0,1,1.0526.1753,3.1058,3.1058,0,0,1,1.7338,4.1169,3.8337,3.8337,0,0,1-4.4805,1.9042,2.9285,2.9285,0,0,1-1.7411-1.6874v-.0005A2.9437,2.9437,0,0,1,205.3949,74.6228Z" style="fill: #231f20"></path>
                        <path d="M210.5063,85.9062l6.0594-1.7536a.6458.6458,0,0,0,.4416-.7976l-.2758-.9651a.64.64,0,0,0-.7948-.4389l-6.0594,1.7537c-2.6566.7687-3.4857,2.3538-2.6909,5.1416.6164,2.1547,1.6744,3.1815,3.3524,3.1815a5.9593,5.9593,0,0,0,1.64-.2631l6.0594-1.7528a.6465.6465,0,0,0,.4416-.7966l-.2758-.9665a.6322.6322,0,0,0-.3064-.3843.6392.6392,0,0,0-.4884-.055L211.55,89.5632c-1.44.4167-1.9429.1351-2.3521-1.2991a2.0882,2.0882,0,0,1-.0216-1.5928A2.1843,2.1843,0,0,1,210.5063,85.9062Z" style="fill: #231f20"></path>
                        <path d="M212.9034,100.3744l-.0721.0126-2.1159.3609a.6456.6456,0,0,0-.5281.7421l.3028,1.824a.6417.6417,0,0,0,.6326.5353.6278.6278,0,0,0,.1082-.01l.4631-.0793a.6457.6457,0,0,0,.5281-.7425l-.0324-.1979-.0018-.0135a2.66,2.66,0,0,1,.29-.0621l.674-.1163a3.89,3.89,0,0,0,2.3629-.9413,2.699,2.699,0,0,0,2.52.7872c1.9-.3253,2.8387-1.7437,2.5071-3.7984l-.7714-4.6239a.6386.6386,0,0,0-.7408-.5262l-9.2549,1.5806a.6517.6517,0,0,0-.4182.2622.6429.6429,0,0,0-.11.48l.164.9912a.6422.6422,0,0,0,.7408.5259l3.6623-.6259.3082,1.8505c.1532.9134.0685,1.27-.0307,1.409C213.9506,100.1969,213.4892,100.2748,212.9034,100.3744Zm3.9561-.23a1.6446,1.6446,0,0,1-.5425-1.1133l-.44-2.6431,2.1016-.3587.5082,3.0387a1.0619,1.0619,0,0,1-.1568.8868,1.15,1.15,0,0,1-.6632.3262A1.08,1.08,0,0,1,216.86,100.1441Z" style="fill: #231f20"></path>
                        <path d="M211.3029,112.5878a.6579.6579,0,0,0-.18.4592l.018,1.0057a.6414.6414,0,0,0,.6417.629h.0144l9.3883-.2014a.6464.6464,0,0,0,.4524-.1983.6575.6575,0,0,0,.18-.4591l-.018-1.0062a.6414.6414,0,0,0-.6561-.629l-9.3883.2019A.6468.6468,0,0,0,211.3029,112.5878Z" style="fill: #231f20"></path>
                        <path d="M221.7943,119.297l.05-.7372a.6378.6378,0,0,0-.155-.4659.6462.6462,0,0,0-.4415-.2171l-9.3667-.6083a.6447.6447,0,0,0-.4668.1595.6527.6527,0,0,0-.22.4416l-.0631.9367a.64.64,0,0,0,.5984.6826l5.9062.3844-6.6758,4.81a.6406.6406,0,0,0-.2667.48l-.0523.7358a.64.64,0,0,0,.5984.6835l9.363.6087.0433.0014a.6466.6466,0,0,0,.6434-.6011l.0667-.9368a.6464.6464,0,0,0-.1568-.4663.6361.6361,0,0,0-.4416-.2181l-5.908-.3839,6.6776-4.8095A.64.64,0,0,0,221.7943,119.297Z" style="fill: #231f20"></path>
                        <path d="M218.761,137.8267l-5.8107-1.1075,7.2093-3.9516a.6435.6435,0,0,0,.3244-.4434l.1424-.7236a.6389.6389,0,0,0-.51-.7525l-9.2081-1.7555a.6473.6473,0,0,0-.7551.511l-.18.9228a.6424.6424,0,0,0,.51.7524l5.8089,1.1067-7.2111,3.9516a.6447.6447,0,0,0-.3244.4442l-.1406.7237a.6418.6418,0,0,0,.5082.7524l9.21,1.7551a.6655.6655,0,0,0,.1208.0117.6483.6483,0,0,0,.6344-.5227l.18-.9219a.6511.6511,0,0,0-.0973-.4826A.6415.6415,0,0,0,218.761,137.8267Z" style="fill: #231f20"></path>
                        <path d="M217.3948,143.5085l-8.9485-2.8a.6457.6457,0,0,0-.8075.4222l-1.9663,6.2081a.6449.6449,0,0,0,.0432.4907.6355.6355,0,0,0,.3767.3154l.766.24a.6468.6468,0,0,0,.8075-.4222l1.4688-4.6333,2.2872.716L210.36,147.4a.6529.6529,0,0,0,.0433.49.6355.6355,0,0,0,.3767.3154l.7678.24a.6477.6477,0,0,0,.8074-.4227l1.0616-3.3536,1.905.5961-1.4671,4.6338a.6392.6392,0,0,0,.4182.8056l.7678.24a.6264.6264,0,0,0,.191.0292.6468.6468,0,0,0,.6164-.4514l1.9663-6.2077a.6385.6385,0,0,0-.42-.8061Z" style="fill: #231f20"></path>
                        <path d="M205.2958,150.2952a.6338.6338,0,0,0-.492-.01.6442.6442,0,0,0-.3569.3416l-.4055.9223a.64.64,0,0,0,.328.8462l3.3992,1.4878-.7588,1.7212c-.3983.9007-.6777,1.1373-.8417,1.1778a2.5444,2.5444,0,0,1-1.1553-.35l-.0685-.03-1.9627-.8589a.6449.6449,0,0,0-.8489.3317l-.75,1.6964a.6422.6422,0,0,0,.33.8476l.4307.1874a.6464.6464,0,0,0,.8471-.3316l.0829-.1857.0036-.013c.0631.02.1514.0527.2758.1067l.6344.2776a3.8567,3.8567,0,0,0,2.4818.5042,2.7,2.7,0,0,0,1.669,2.0461,3.46,3.46,0,0,0,1.3841.3122,3.1019,3.1019,0,0,0,2.7937-2.1208l1.8978-4.3022a.6461.6461,0,0,0,.0108-.492.6393.6393,0,0,0-.3406-.3551Zm6.3388,5.28-1.2472,2.8269a.9118.9118,0,0,1-1.35.57c-.4433-.1938-.97-.59-.44-1.7915l1.085-2.4593Z" style="fill: #231f20"></path>
                        <path d="M197.6017,165.8533a.6453.6453,0,0,0-.8958.1681l-.5713.8308a.6423.6423,0,0,0,.164.894l3.2784,2.25-1.3121,1.9073c-1.2382,1.82-1.0489,3.4807.5173,4.5567a3.1692,3.1692,0,0,0,1.7464.584,3.34,3.34,0,0,0,2.7144-1.7276l2.2493-3.2649a.6437.6437,0,0,0-.1641-.8944Zm5.2321,6.378L201.5,174.1688c-.5984.8691-1.0688.7173-1.4509.455a.8648.8648,0,0,1-.4163-.5569,1.422,1.422,0,0,1,.3316-.9516l1.3337-1.9375Z" style="fill: #231f20"></path>
                        <path d="M191.67,174.2706a.6353.6353,0,0,0-.474-.1316.6493.6493,0,0,0-.4307.2424l-.6218.7922a.6437.6437,0,0,0,.1063.9029l7.37,5.7792a.6456.6456,0,0,0,.9048-.11l.6218-.7917a.6438.6438,0,0,0-.1064-.903Z" style="fill: #231f20"></path>
                        <polygon points="183.787 183.411 184.38 183.954 188.105 179.897 190.814 182.386 187.997 185.452 188.588 185.996 191.407 182.929 193.82 185.146 190.093 189.202 190.684 189.745 195.093 184.948 188.195 178.613 183.787 183.411" style="fill: #231f20;stroke: #231f20;stroke-linecap: round;stroke-linejoin: round;stroke-width: 1.0578296378467px"></polygon>
                        <path d="M177.6626,187.825c-2.1484,1.869-2.5936,4.3742-1.1625,6.5388a.6416.6416,0,0,0,.957.1284l.7714-.67a.6445.6445,0,0,0,.1262-.8259,2.5575,2.5575,0,0,1,.7659-3.4943,3.076,3.076,0,0,1,4.5617.5,3.6424,3.6424,0,0,1,.97,2.3822,2.8648,2.8648,0,0,1-1.0616,2.1641c-1.2256,1.0679-2.4926,1.1639-3.565.27a.6424.6424,0,0,0-.8345.0095l-.7714.67a.6512.6512,0,0,0-.2216.483.6417.6417,0,0,0,.2144.4839,4.5991,4.5991,0,0,0,3.08,1.2292,5.4538,5.4538,0,0,0,3.5542-1.4689,5.2279,5.2279,0,0,0,1.8672-3.7506,5.7586,5.7586,0,0,0-1.5-3.98A5.3208,5.3208,0,0,0,177.6626,187.825Z" style="fill: #231f20"></path>
                        <path d="M172.5944,193.158a.643.643,0,0,0-.8939-.1662l-5.3764,3.6772a.6435.6435,0,0,0-.1694.8948l.4506.6628a.6423.6423,0,0,0,.894.1663l4.0137-2.744,1.3482,1.978-2.9036,1.9866a.6441.6441,0,0,0-.1694.8944l.4506.6633a.6422.6422,0,0,0,.8939.1662l2.9036-1.9857,1.1228,1.6465-4.01,2.7449a.6429.6429,0,0,0-.1713.8944l.4506.6628a.643.643,0,0,0,.894.1667l5.3763-3.6772a.6454.6454,0,0,0,.1712-.8944Z" style="fill: #231f20"></path>
                        <path d="M159.3546,203.6467a2.0621,2.0621,0,0,0-1.5573.1081,2.0358,2.0358,0,0,0-.957,2.7423,2.0059,2.0059,0,0,0,1.1715,1.0372,2.0517,2.0517,0,0,0,.6561.1081,2.0906,2.0906,0,0,0,1.9663-1.4094,2.0549,2.0549,0,0,0-1.28-2.5863Z" style="fill: #231f20"></path>
                        <path d="M147.1889,206.197a.6429.6429,0,0,0-.49-.0415l-5.9458,1.8974a.6464.6464,0,0,0-.42.8088l.2415.7655a.6358.6358,0,0,0,.3154.3763.6433.6433,0,0,0,.49.0414l4.3742-1.3959,2.3845,7.5608a.6407.6407,0,0,0,.611.447.6309.6309,0,0,0,.1964-.0307l.9589-.3068a.6464.6464,0,0,0,.42-.8088l-2.8206-8.9378A.6336.6336,0,0,0,147.1889,206.197Z" style="fill: #231f20"></path>
                        <path d="M137.6059,208.8689l-6.3694,1.3436a.6491.6491,0,0,0-.5011.7629l.1641.7876a.6384.6384,0,0,0,.7587.4961l4.7582-1.003.4848,2.35-3.4424.7273a.6451.6451,0,0,0-.4993.7614l.1622.7877a.6418.6418,0,0,0,.7606.4969l3.4424-.7263.4056,1.956-4.7564,1.0034a.6459.6459,0,0,0-.4992.7629l.164.7876a.6379.6379,0,0,0,.6254.5105.6859.6859,0,0,0,.1334-.014l6.3712-1.3441a.6449.6449,0,0,0,.4992-.7619l-1.9014-9.1882A.6421.6421,0,0,0,137.6059,208.8689Z" style="fill: #231f20"></path>
                        <path d="M121.9545,211.5737a.6384.6384,0,0,0-.4614-.1707l-1.0057.04a.6457.6457,0,0,0-.62.6678l.137,3.98-2.3088.0892c-2.1952.0965-3.4154,1.2436-3.3523,3.1478.0306.8831.4217,2.8981,3.3469,2.8981.0721,0,.1424-.0013.2163-.0036l3.9543-.1523a.6456.6456,0,0,0,.62-.6677l-.3226-9.3811A.6412.6412,0,0,0,121.9545,211.5737Zm-5.1366,8.3268a.8871.8871,0,0,1-.2487-.6592.8961.8961,0,0,1,.1874-.6529,1.4652,1.4652,0,0,1,.9751-.3177l2.3448-.09.0631,1.8636-2.3448.09A1.4134,1.4134,0,0,1,116.8179,219.9005Z" style="fill: #231f20"></path>
                        <path d="M107.85,211.09a4.3865,4.3865,0,0,0-3.2658.7533,3.9654,3.9654,0,0,0-1.2184,2.9342l-.4722,6.2847a.64.64,0,0,0,.593.6876l1.0021.0712a.6453.6453,0,0,0,.6885-.5961l.474-6.2852a2.1925,2.1925,0,0,1,.4776-1.458,2.1013,2.1013,0,0,1,1.5644-.3064c1.4887.1059,1.8672.5434,1.7555,2.0348l-.474,6.2851a.6484.6484,0,0,0,.1532.4673.6412.6412,0,0,0,.44.22l1.0039.0712c.0163.0009.0307.0013.0469.0013a.6453.6453,0,0,0,.6416-.5979l.474-6.2852a3.9324,3.9324,0,0,0-.7678-3.0752A4.342,4.342,0,0,0,107.85,211.09Z" style="fill: #231f20"></path>
                        <path d="M100.7448,210.6613l-7.112-1.3188a.6466.6466,0,0,0-.7516.5159l-.1622.857a.64.64,0,0,0,.5137.7489l4.8338.8966-6.5208,5.3565a.6487.6487,0,0,0-.2253.3785l-.1874.9886a.6424.6424,0,0,0,.5118.7507l7.1138,1.3184a.6309.6309,0,0,0,.1172.0108.64.64,0,0,0,.364-.1136.6512.6512,0,0,0,.27-.4127l.1622-.8566a.6405.6405,0,0,0-.5137-.75l-4.8338-.8962,6.5208-5.3574a.6494.6494,0,0,0,.2253-.379l.1874-.9886A.64.64,0,0,0,100.7448,210.6613Z" style="fill: #231f20"></path>
                        <path d="M90.3832,208.5544l-6.9191-2.0984a.6445.6445,0,0,0-.8039.4286l-.2559.8335a.6386.6386,0,0,0,.4254.803l4.704,1.427-7.07,4.604a.6378.6378,0,0,0-.2649.3519l-.2974.962a.6411.6411,0,0,0,.4271.8025l6.9192,2.0988a.664.664,0,0,0,.1874.027.6388.6388,0,0,0,.3028-.0757.6461.6461,0,0,0,.3136-.3812l.2559-.8331a.64.64,0,0,0-.4253-.8016l-4.7041-1.4265,7.0705-4.605a.6476.6476,0,0,0,.2668-.3523l.2938-.9625A.6408.6408,0,0,0,90.3832,208.5544Z" style="fill: #231f20"></path>
                        <path d="M72.569,204.1914a2.0477,2.0477,0,1,0-.182,3.7709,2.0723,2.0723,0,0,0,1.231-2.6214A2.0492,2.0492,0,0,0,72.569,204.1914Z" style="fill: #231f20"></path>
                    </g>
                </svg>