<svg xmlns="http://www.w3.org/2000/svg" viewBox="0 0 520.986 69.2614">
                  <path d="M26.6 45.1c-1 0-1.8-0.8-1.8-1.8V1.9c0-1-0.8-1.8-1.8-1.8H1.8C0.8 0.1 0 0.9 0 1.9v64c0 1 0.8 1.8 1.8 1.8h56.1c1 0 1.8-0.8 1.8-1.8v-19c0-1-0.8-1.8-1.8-1.8H26.6z"></path>
                  <path d="M121.3 21.3c1 0 1.8-0.8 1.8-1.8V1.9c0-1-0.8-1.8-1.8-1.8H65.2c-1 0-1.8 0.8-1.8 1.8v64c0 1 0.8 1.8 1.8 1.8h56.2c1 0 1.8-0.8 1.8-1.8v-19c0-1-0.8-1.8-1.8-1.8H90.1c-1 0-1.8-0.8-1.8-1.8v-2.1c0-1 0.8-1.8 1.8-1.8h14.7c1 0 1.8-0.8 1.8-1.8v-8.9c0-1-0.8-1.8-1.8-1.8H90.1c-1 0-1.8-0.8-1.8-1.8v-2.1c0-1 0.8-1.8 1.8-1.8H121.3z"></path>
                  <path d="M514.1 37.7L514.1 37.7l-3.9 0c-0.2 0-0.3 0.1-0.3 0.3l0 0.6c0 0.2 0.2 0.3 0.3 0.3h0l1.2 0 0 2.5c0 0.1 0 0.2 0.1 0.2 0.1 0.1 0.2 0.1 0.2 0.1h0l0.7 0c0.1 0 0.2 0 0.2-0.1 0.1-0.1 0.1-0.1 0.1-0.2l0-2.5 1.2 0c0.1 0 0.2 0 0.2-0.1 0.1-0.1 0.1-0.1 0.1-0.2l0-0.6C514.5 37.8 514.3 37.7 514.1 37.7z"></path>
                  <path d="M520.1 38c0-0.2-0.2-0.3-0.3-0.3 0 0 0 0 0 0l-0.7 0c-0.1 0-0.2 0.1-0.3 0.2l-1.2 1.9 -1.2-1.9c-0.1-0.1-0.2-0.2-0.3-0.2l-0.7 0c-0.2 0-0.3 0.1-0.3 0.3l0 3.4c0 0.2 0.2 0.3 0.3 0.3h0l0.7 0c0.2 0 0.3-0.1 0.3-0.3l0-1.1 0.8 1.3c0.1 0.1 0.2 0.2 0.3 0.2h0l0.1 0c0.1 0 0.2-0.1 0.3-0.2l0.8-1.3 0 1.1c0 0.1 0 0.2 0.1 0.2 0.1 0.1 0.2 0.1 0.2 0.1h0l0.7 0c0.1 0 0.2 0 0.2-0.1 0.1-0.1 0.1-0.1 0.1-0.2L520.1 38z"></path>
                  <path d="M306 0.2h-34.5c-1 0-1.8 0.8-1.8 1.8 0 0 0 0 0 0v63.9c0 1 0.8 1.8 1.8 1.8h21.2c1 0 1.8-0.8 1.8-1.8V45c0-1 0.8-1.8 1.8-1.8l11.5-0.1c11.8 0 21.3-9.5 21.3-21.3C329 9.5 319.1 0.2 306 0.2zM300.5 26.2h-4.1c-0.9 0-1.7-0.7-1.8-1.6v-2.3c0-0.9 0.8-1.7 1.8-1.6h4.1c1.6-0.1 3 1.2 3 2.8C303.5 25 302.1 26.3 300.5 26.2L300.5 26.2z"></path>
                  <path d="M398.1 0c-1 0-1.8 0.8-1.8 1.8v17.7c0 1 0.8 1.8 1.8 1.8h16.5c0.6-0.1 1.1 0.3 1.2 0.9 0 0.2 0 0.5-0.1 0.7l-18.9 43c-0.3 0.5-0.2 1.2 0.4 1.5 0.2 0.1 0.5 0.2 0.7 0.1h56.6c1 0 1.8-0.8 1.8-1.8V47.3c0-1-0.8-1.8-1.8-1.8h-14.6c-0.6 0.1-1.2-0.3-1.2-0.9 0-0.2 0-0.5 0.1-0.7l18.1-42.2c0.3-0.5 0.1-1.2-0.4-1.5C456.3 0 456.1 0 455.8 0H398.1z"></path>
                  <path d="M462 0c-1 0-1.8 0.8-1.8 1.8v17.7c0 1 0.8 1.8 1.8 1.8h16.5c0.6-0.1 1.1 0.3 1.2 0.9 0 0.2 0 0.5-0.1 0.7l-18.9 43c-0.3 0.5-0.2 1.2 0.4 1.5 0.2 0.1 0.5 0.2 0.7 0.1h56.6c1 0 1.8-0.8 1.8-1.8V47.3c0-1-0.8-1.8-1.8-1.8h-14.6c-0.6 0.1-1.2-0.3-1.2-0.9 0-0.2 0-0.5 0.1-0.7l18.1-42.2c0.3-0.5 0.1-1.2-0.4-1.5C520.3 0 520 0 519.8 0H462z"></path>
                  <path d="M390.6 0.2h-24.1c-1 0-1.8 0.8-1.8 1.8v37.9c0 0 0.1 3.7-2.1 3.7 -2.3 0-2.2-3.7-2.2-3.7V1.9c0-1-0.8-1.8-1.8-1.8 0 0 0 0 0 0h-24c-1 0-1.8 0.8-1.8 1.8 0 0 0 0 0 0v41.2c0 13.4 10.6 24.4 27 25.6 0.9 0.1 1.9 0.1 2.9 0.1 19.1 0 29.9-11.5 29.9-25.7V2C392.4 1 391.6 0.2 390.6 0.2z"></path>
                  <path d="M149.3 50.1c8.8 0 16-4.2 16-9.5s-7.1-9.5-15.9-9.5 -16 4.2-16 9.5C133.3 45.9 140.4 50.1 149.3 50.1z"></path>
                  <path d="M227.8 40.6c0 5.2 7.1 9.5 15.9 9.5s16-4.2 16-9.5c0-5.2-7.1-9.5-15.9-9.5C235 31.2 227.8 35.4 227.8 40.6z"></path>
                  <path d="M196.5 42.8c4.6 0 8.2-3.7 8.3-8.2 0-4.5-3.6-8.2-8.2-8.2 0 0 0 0 0 0 -4.6 0-8.2 3.7-8.3 8.2C188.3 39.1 192 42.8 196.5 42.8 196.5 42.8 196.5 42.8 196.5 42.8z"></path>
                  <path class="eye eye-left" d="M173.2 13.7c-0.1-7.5-6.2-13.5-13.6-13.5 0 0 0 0-0.1 0 -7.5 0-13.5 6.1-13.5 13.6 0 0 0 0 0 0 0.1 7.5 6.2 13.5 13.6 13.5 0 0 0 0 0.1 0C167.1 27.3 173.2 21.2 173.2 13.7 173.2 13.8 173.2 13.7 173.2 13.7zM169.6 15.3L169.6 15.3c-0.3-0.1-0.6-0.3-0.7-0.6 -1.6-3.1-5.3-5.1-9.4-5.1 -3.7 0-7.1 1.8-9.2 4.9 -0.1 0.1-0.2 0.3-0.3 0.4 -0.1 0.3-0.4 0.4-0.8 0.4 -0.2-0.1-0.3-0.3-0.3-0.6 0 0 0-0.1 0-0.1l0-0.4c0-0.1 0-0.3 0-0.4 0.4-5.8 5.4-10.2 11.3-9.8 5.5 0.4 9.8 4.9 9.8 10.4l0 0C170.2 14.8 170 15.1 169.6 15.3L169.6 15.3z" style="transform: rotate(0deg);"></path>
                  <path class="eye eye-right" d="M247.3 14c0.1-7.5-5.9-13.6-13.4-13.7 0 0 0 0-0.1 0 -7.5-0.1-13.6 5.9-13.8 13.4 0 0 0 0 0 0 -0.1 7.5 5.9 13.6 13.4 13.8 0 0 0 0 0.1 0C241.1 27.5 247.2 21.5 247.3 14 247.3 14 247.3 14 247.3 14zM243.8 15.5L243.8 15.5c-0.3-0.1-0.6-0.3-0.7-0.6 -1.5-3.1-5.2-5.2-9.3-5.2 -3.7-0.1-7.2 1.7-9.3 4.7 -0.1 0.1-0.2 0.3-0.3 0.4 -0.2 0.3-0.5 0.4-0.8 0.4 -0.2-0.1-0.3-0.3-0.3-0.6 0 0 0-0.1 0-0.1l0-0.4c0-0.1 0-0.3 0-0.4 0.5-5.8 5.6-10.1 11.4-9.6 5.5 0.5 9.7 5.1 9.7 10.6l0 0C244.3 15 244.1 15.3 243.8 15.5L243.8 15.5z" style="transform: rotate(0deg);"></path>
                  <path d="M195.9 69.3c9.9 0 18.2-7.5 19.1-17.4 0.1-0.9-0.6-1.7-1.5-1.8 -0.1 0-0.1 0-0.2 0h-34.8c-0.9 0-1.7 0.7-1.7 1.7 0 0 0 0.1 0 0.1C177.8 61.7 186 69.3 195.9 69.3z"></path>     
              </svg>