<svg class="page-logo" xmlns="http://www.w3.org/2000/svg" viewBox="0 0 1278.7009 196.2947">
            <path d="M73.1094,127.571a4.94,4.94,0,0,1-4.9255-4.9254V8.7694a4.94,4.94,0,0,0-4.9254-4.9255H4.9254A4.94,4.94,0,0,0,0,8.7694V184.6159a4.94,4.94,0,0,0,4.9254,4.9254H158.9382a4.94,4.94,0,0,0,4.9254-4.9254V132.4965a4.94,4.94,0,0,0-4.9254-4.9255Z"></path>
            <path d="M333.3135,62.1947a4.94,4.94,0,0,0,4.9254-4.9255v-48.5a4.94,4.94,0,0,0-4.9254-4.9255H179.015A4.94,4.94,0,0,0,174.09,8.7694V184.6159a4.94,4.94,0,0,0,4.9255,4.9254H333.3135a4.94,4.94,0,0,0,4.9254-4.9254V132.4965a4.94,4.94,0,0,0-4.9254-4.9255H247.4588a4.94,4.94,0,0,1-4.9255-4.9254v-5.7a4.94,4.94,0,0,1,4.9255-4.9254h40.505a4.94,4.94,0,0,0,4.9255-4.9254V82.7761a4.94,4.94,0,0,0-4.9255-4.9255h-40.505a4.94,4.94,0,0,1-4.9255-4.9254V67.12a4.94,4.94,0,0,1,4.9255-4.9254Z"></path>
            <path d="M1259.8918,107.0318h-.0038l-10.6183.0532a.9315.9315,0,0,0-.9326.9222l.0076,1.5994a.93.93,0,0,0,.9364.9136h.0038l3.3774-.0171.036,6.8572a.9038.9038,0,0,0,.27.6459.935.935,0,0,0,.6648.2726h.0038l1.9774-.0105a.9419.9419,0,0,0,.6667-.2792.9031.9031,0,0,0,.264-.6459l-.0341-6.8591,3.3925-.0171a.9454.9454,0,0,0,.6667-.2792.9033.9033,0,0,0,.264-.6458l-.0076-1.5965A.93.93,0,0,0,1259.8918,107.0318Z"></path>
            <path d="M1276.37,108.07a.9171.9171,0,0,0-.9346-.908l-1.9983.01a.93.93,0,0,0-.79.44l-3.2234,5.23-3.2729-5.1971a1.02,1.02,0,0,0-.794-.4331l-2,.0105a.9244.9244,0,0,0-.9251.9165l.0456,9.2316a.926.926,0,0,0,.9289.908h.0038l1.945-.0105a.9268.9268,0,0,0,.927-.92l-.0152-2.99,2.2015,3.4647a.9274.9274,0,0,0,.7845.4255h.0057l.37-.0019a.918.918,0,0,0,.7883-.4379l2.1807-3.515.0152,3.02a.8992.8992,0,0,0,.2678.642.9324.9324,0,0,0,.661.2717h.0038l1.9451-.01a.9327.9327,0,0,0,.6629-.2783.9.9,0,0,0,.2622-.6411Z"></path>
            <path d="M688.0069,4.0757H593.2018a4.9252,4.9252,0,0,0-4.9254,4.9254V184.6162a4.9256,4.9256,0,0,0,4.9254,4.9254h58.333a4.9255,4.9255,0,0,0,4.9255-4.9254V127.2533a4.926,4.926,0,0,1,4.89-4.9255l31.4881-.1906a58.5523,58.5523,0,0,0,58.4873-58.4866C751.3258,29.7635,724.1035,4.0757,688.0069,4.0757Zm-15.0017,71.476h-11.34a4.7224,4.7224,0,0,1-4.9255-4.4885V64.8a4.7224,4.7224,0,0,1,4.9255-4.4885h11.34c4.599,0,8.3617,3.4288,8.3617,7.62S677.6042,75.5517,673.0052,75.5517Z"></path>
            <path d="M940.9717,3.5755a4.94,4.94,0,0,0-4.9255,4.9254V57.002a4.94,4.94,0,0,0,4.9255,4.9254h45.3636c2.709,0,4.0351,2.03,2.9469,4.5106L937.4729,184.5548c-1.0882,2.4808.238,4.5106,2.947,4.5106h155.428a4.94,4.94,0,0,0,4.9255-4.9254V133.5484a4.94,4.94,0,0,0-4.9255-4.9255h-39.9885c-2.709,0-4.0519-2.037-2.9841-4.5267l49.7465-115.994c1.0678-2.49-.275-4.5267-2.984-4.5267Z"></path>
            <path d="M1116.6836,3.5755a4.94,4.94,0,0,0-4.9254,4.9254V57.002a4.94,4.94,0,0,0,4.9254,4.9254h45.3638c2.709,0,4.0351,2.03,2.9469,4.5106l-51.8094,118.1168c-1.0882,2.4808.2379,4.5106,2.9469,4.5106H1271.56a4.94,4.94,0,0,0,4.9255-4.9254V133.5484a4.94,4.94,0,0,0-4.9255-4.9255h-39.9885c-2.709,0-4.0519-2.037-2.9841-4.5267l49.7465-115.994c1.0678-2.49-.275-4.5267-2.984-4.5267Z"></path>
            <path d="M920.4144,4.0757H854.18a4.954,4.954,0,0,0-4.9827,4.9254v104.25s.4009,10.18-5.8207,10.18c-6.407,0-6.092-10.0941-6.092-10.0941V8.6572a4.9544,4.9544,0,0,0-4.9826-4.9254h-66a4.9544,4.9544,0,0,0-4.9827,4.9254V121.9226c0,36.8392,29.1946,67.0695,74.0677,70.2813,2.6081.1864,5.26.2983,7.9711.2983,52.491,0,82.0388-31.5994,82.0388-70.58V9.0011A4.9539,4.9539,0,0,0,920.4144,4.0757Z"></path>
            <path d="M461.1225,182.05a84.4459,84.4459,0,0,0,84.276-83.9279A83.5626,83.5626,0,0,0,461.82,14.195a83.9282,83.9282,0,0,0-.6979,167.855ZM494.7779,58.2657a83.8716,83.8716,0,0,0,23.0966-14.778A77.2752,77.2752,0,0,1,539.8191,95.35H501.985c.0332-.5391.0779-1.4458.0829-2.6774C502.0928,86.9,501.2706,73.9812,494.7779,58.2657Zm-36.6307,1.1181A77.64,77.64,0,0,1,436.04,55.1553,110.558,110.558,0,0,1,458.2914,24.8Zm5.6938-35.93a109.9484,109.9484,0,0,1,23.42,31.7011,78.035,78.035,0,0,1-23.569,4.294ZM492.454,53.148a114.9668,114.9668,0,0,0-24.121-33.0972A77.4769,77.4769,0,0,1,513.7422,39.64,78.2389,78.2389,0,0,1,492.454,53.148Zm-61.5905,0A77.3689,77.3689,0,0,1,409.6864,39.64,78.168,78.168,0,0,1,455.26,20.0508,116.3159,116.3159,0,0,0,430.8635,53.148Zm2.79,7.14a83.205,83.205,0,0,0,24.4708,4.6536l-.126,30.409H426.5406c-.0149-.1985-.07-1.053-.063-2.464A86.9712,86.9712,0,0,1,433.6532,60.2876Zm30.0154,4.7137a83.6181,83.6181,0,0,0,25.9377-4.7137A86.5981,86.5981,0,0,1,496.51,92.8841c-.0067,1.42-.068,2.2759-.0846,2.4661H463.5426Zm-58.146-21.5136a82.96,82.96,0,0,0,22.9739,14.778C421.8729,73.9812,420.9446,86.9,420.92,92.6728c-.005,1.2316.0315,2.1383.063,2.6774H383.147A77.9385,77.9385,0,0,1,405.5226,43.4877Zm134.2717,57.4067a78.8794,78.8794,0,0,1-78.6486,75.6118,78.0842,78.0842,0,0,1-78.02-75.6118Z"></path>
            <path d="M419.1594,150.7649c7.8055,0,14.1723-3.7635,14.1922-8.39s-6.3154-8.3894-14.1226-8.3894-14.1739,3.7631-14.1921,8.3894C405.017,147.0014,411.3523,150.7649,419.1594,150.7649Z"></path>
            <path d="M488.7311,142.3751c-.02,4.6263,6.3153,8.39,14.1225,8.39s14.1739-3.7635,14.1938-8.39c.0182-4.6263-6.317-8.3894-14.1242-8.3894C495.1177,133.9857,488.751,137.7488,488.7311,142.3751Z"></path>
            <path d="M461.05,144.3277a7.3415,7.3415,0,0,0,7.3265-7.2966,7.2681,7.2681,0,0,0-7.2668-7.2966,7.3416,7.3416,0,0,0-7.3265,7.2966A7.268,7.268,0,0,0,461.05,144.3277Z"></path>
            <path d="M422.8111,107.8623a12.0863,12.0863,0,0,0-5.2278,16.18c.0083.015.0162.0317.0242.0484a12.009,12.009,0,0,0,16.1685,5.2406,12.0884,12.0884,0,0,0,5.2283-16.1824c-.0083-.0149-.016-.0314-.0246-.0465A12.0092,12.0092,0,0,0,422.8111,107.8623Zm2.6387,2.1688.019.0464a.87.87,0,0,1-.2279.7265c-1.8064,2.4864-1.8944,6.2082-.2227,9.4788a9.9133,9.9133,0,0,0,7.54,5.327c.1412.0178.2825.0335.4231.0467a.6563.6563,0,0,1,.608.4434c.0359.1837-.0923.3612-.3647.5018-.0264.013-.0545.0268-.081.0377l-.284.1294c-.1031.0478-.2071.0948-.3108.14a9.3594,9.3594,0,0,1-7.9388-16.9366l.0037-.0013a.6978.6978,0,0,1,.8029.0215Z"></path>
            <path d="M488.5042,107.8625a12.0855,12.0855,0,0,0-5.2279,16.1806c.0083.0149.0163.0316.0239.0481a12.0091,12.0091,0,0,0,16.1689,5.2408,12.0887,12.0887,0,0,0,5.2282-16.1823c-.0083-.015-.017-.03-.0243-.0464A12.0093,12.0093,0,0,0,488.5042,107.8625Zm2.6387,2.1689.019.0463a.87.87,0,0,1-.2279.7265c-1.8064,2.4864-1.8944,6.2082-.2228,9.4789a9.9135,9.9135,0,0,0,7.54,5.327q.2118.0267.4232.0466a.6561.6561,0,0,1,.6079.4435c.0359.1836-.0923.3611-.3646.5017-.0265.013-.0546.0268-.081.0377l-.2841.1294c-.1031.0478-.2071.0948-.3108.14a9.3594,9.3594,0,0,1-7.9388-16.9366l.0037-.0013a.6978.6978,0,0,1,.803.0216Z"></path>
            <path d="M460.47,167.726a17.05,17.05,0,0,0,16.95-15.369,1.4663,1.4663,0,0,0-1.47-1.5921H445.13a1.4816,1.4816,0,0,0-1.4852,1.5921A16.8766,16.8766,0,0,0,460.47,167.726Z"></path>
            <path d="M411.5379,171.5036a.5917.5917,0,0,0-.8238.1459l-2.04,2.9-2.6388-1.8519a.5923.5923,0,0,0-.8238.1463l-.426.6058a.59.59,0,0,0,.1409.8238l2.6388,1.8516-1.0592,1.505-3.4444-2.4163a.592.592,0,0,0-.8238.1459l-.4277.6062a.5922.5922,0,0,0,.1426.8243l4.6843,3.2857a.5911.5911,0,0,0,.8238-.1459l4.976-7.072a.59.59,0,0,0-.1425-.8238Z"></path>
            <path d="M405.4016,167.189a.5861.5861,0,0,0-.2122-.3987l-.7144-.5851a.593.593,0,0,0-.8338.0846l-5.4849,6.6858a.589.589,0,0,0,.0812.8325l.7128.5851a.5923.5923,0,0,0,.3746.133q.03,0,.06-.0025a.5986.5986,0,0,0,.4-.2146l5.4865-6.6867A.5949.5949,0,0,0,405.4016,167.189Z"></path>
            <path d="M401.7715,163.9733l-.6166-.6021a.5933.5933,0,0,0-.4128-.167h-.0083a.59.59,0,0,0-.416.179l-3.8141,3.9061.6415-7.5316a.5882.5882,0,0,0-.174-.4712l-.4841-.4736a.6438.6438,0,0,0-.421-.1679.5908.5908,0,0,0-.416.179l-6.0469,6.1915a.5914.5914,0,0,0,.0083.8367l.615.6016a.5672.5672,0,0,0,.4194.1675.5932.5932,0,0,0,.4177-.1791l3.8157-3.906-.6431,7.5312a.5871.5871,0,0,0,.174.4715l.484.4741a.5923.5923,0,0,0,.4128.1678h.0082a.59.59,0,0,0,.4161-.1794l6.0468-6.1914A.5914.5914,0,0,0,401.7715,163.9733Z"></path>
            <path d="M394.324,156.6907a.5888.5888,0,0,0-.1276-.4347l-1.8863-2.35a4.5988,4.5988,0,0,0-3.2008-1.825,5.0454,5.0454,0,0,0-3.58,1.2329c-2.3255,1.8722-2.672,4.5239-.88,6.7566l1.8879,2.35a.5868.5868,0,0,0,.4592.22.5982.5982,0,0,0,.3729-.131l6.7364-5.4206A.5984.5984,0,0,0,394.324,156.6907Zm-5.4153-2.5733c.0249,0,.0514,0,.0763.0008a2.4035,2.4035,0,0,1,1.8233.9954l.9415,1.1706-4.6594,3.7482-.94-1.17a2.4055,2.4055,0,0,1-.5785-1.9966,3.3094,3.3094,0,0,1,1.2747-1.9112A3.3539,3.3539,0,0,1,388.9087,154.1174Z"></path>
            <path d="M383.5249,140.7847l-.4376-.8131a.5886.5886,0,0,0-.8006-.237l-3.5522,1.9232-5.3357-.9792a.5933.5933,0,0,0-.63.864l.4957.9212a.5822.5822,0,0,0,.4094.3l3.8737.72-1.5465,3.5912a.5916.5916,0,0,0,.0232.5151l.5255.975a.5891.5891,0,0,0,.5188.3087l.03-.0008a.5946.5946,0,0,0,.5172-.3613l2.1266-5.0063,3.5423-1.9187a.5918.5918,0,0,0,.24-.8022Z"></path>
            <path d="M376.3443,137.7414a5.2956,5.2956,0,0,0,2.8975-2.6869,5.0181,5.0181,0,0,0-2.6389-6.6013,5.5311,5.5311,0,0,0-6.8391,2.7582,4.8839,4.8839,0,0,0-.05,3.8513,4.8241,4.8241,0,0,0,4.5468,3.0939A5.5738,5.5738,0,0,0,376.3443,137.7414Zm-4.729-3.444a2.8759,2.8759,0,0,1,1.8266-3.8183,3.6309,3.6309,0,0,1,1.3509-.2726,2.9171,2.9171,0,0,1,1.0244.18,2.7017,2.7017,0,0,1,1.5731,1.5818,3.1249,3.1249,0,0,1-5.775,2.3289Z"></path>
            <path d="M375.8255,124.1721a5.2328,5.2328,0,0,0-1.5084-5.6851,3.6207,3.6207,0,0,0-2.9123-.1645l-5.606,1.508a.593.593,0,0,0-.421.7256l.2371.8934a.5935.5935,0,0,0,.7243.4173l5.6043-1.508a1.9994,1.9994,0,0,1,1.4089-.0311,2.7933,2.7933,0,0,1,.726,2.7334,2.0118,2.0118,0,0,1-1.2365.6808l-5.6059,1.5088a.5934.5934,0,0,0-.4194.7252l.2354.8926a.5871.5871,0,0,0,.2751.3593.5934.5934,0,0,0,.4492.0584l5.6043-1.5075A3.65,3.65,0,0,0,375.8255,124.1721Z"></path>
            <path d="M374.17,114.6058l-.1343-.9146a.5882.5882,0,0,0-.6713-.496l-3.3781.5118L369.7339,112c-.1326-.8926-.03-1.2129.0779-1.3244a2.3586,2.3586,0,0,1,1.0725-.2955l.0679-.01,1.951-.2951a.5943.5943,0,0,0,.4989-.6738l-.2469-1.6824a.5885.5885,0,0,0-.673-.4964l-.426.0646a.5936.5936,0,0,0-.4989.6755l.0265.1806.0033.0133a2.5658,2.5658,0,0,1-.2669.0526l-.6282.0945a3.57,3.57,0,0,0-2.1847.8251,2.4858,2.4858,0,0,0-2.304-.7683c-1.7537.2664-2.6389,1.5548-2.372,3.45l.63,4.2674a.588.588,0,0,0,.232.3871.5818.5818,0,0,0,.35.1152.5985.5985,0,0,0,.0895-.0062l8.54-1.2942A.5943.5943,0,0,0,374.17,114.6058Zm-7.4392-4.2409c.4011,0,.8454.1989.9912,1.1922l.36,2.4387-1.9393.2938-.4128-2.8042a.8377.8377,0,0,1,.7725-1.1014A1.468,1.468,0,0,1,366.73,110.3649Z"></path>
            <path d="M372.57,99.2074a.5946.5946,0,0,0,.1741-.419v-.9257a.5871.5871,0,0,0-.5885-.59h-.0016l-8.631.0261a.5948.5948,0,0,0-.5934.593l-.0017.9253a.5878.5878,0,0,0,.59.59h0l8.6327-.0257A.591.591,0,0,0,372.57,99.2074Z"></path>
            <path d="M373.3574,87.633l.06-.6755a.588.588,0,0,0-.537-.64l-8.5945-.7277a.5938.5938,0,0,0-.6415.5391l-.0779.86a.5895.5895,0,0,0,.537.64l5.4236.4592-6.2242,4.2993a.592.592,0,0,0-.2536.4372l-.06.6754a.5886.5886,0,0,0,.537.639l8.5945.7285c.0166.0017.0348.0017.0514.0017a.5928.5928,0,0,0,.59-.5408l.0779-.86a.59.59,0,0,0-.537-.64l-5.422-.4592,6.2226-4.2989A.5974.5974,0,0,0,373.3574,87.633Z"></path>
            <path d="M375.3332,76.9959l.1426-.6639a.5878.5878,0,0,0-.4542-.7007l-8.44-1.7736a.6.6,0,0,0-.7028.4571l-.1807.8449a.5878.5878,0,0,0,.4542.7008L371.476,76.98l-6.7,3.51a.601.601,0,0,0-.3066.4015l-.1426.6634A.5937.5937,0,0,0,364.41,82a.5854.5854,0,0,0,.373.2557l8.44,1.774a.5722.5722,0,0,0,.121.0129.5969.5969,0,0,0,.5818-.47l.1807-.8445a.5908.5908,0,0,0-.4542-.7l-5.3258-1.1189,6.7016-3.5111A.5945.5945,0,0,0,375.3332,76.9959Z"></path>
            <path d="M375.8752,73.4184a.5939.5939,0,0,0,.5636-.4048l1.9145-5.6718a.5892.5892,0,0,0-.3713-.7484l-.7011-.2346a.5938.5938,0,0,0-.7493.3742l-1.4288,4.2339-2.0919-.6978,1.0344-3.0636a.5892.5892,0,0,0-.3713-.7484l-.7-.2342a.5942.5942,0,0,0-.7509.3746l-1.0327,3.0636-1.74-.5805,1.4271-4.2335a.5893.5893,0,0,0-.3712-.7484l-.7-.2337a.5911.5911,0,0,0-.7493.3738l-1.9145,5.6722a.5894.5894,0,0,0,.3713.7484l8.1752,2.7284A.5812.5812,0,0,0,375.8752,73.4184Z"></path>
            <path d="M377.8279,56.643a2.48,2.48,0,0,0-1.4985-1.9091c-1.6045-.74-3.0549-.1488-3.8721,1.5871l-1.82,3.9206a.591.591,0,0,0,.2868.7848l7.827,3.6086a.5923.5923,0,0,0,.7857-.29l.3912-.84a.5923.5923,0,0,0-.2884-.7857l-3.0964-1.4275.7277-1.5685c.36-.7753.61-1.0024.7575-1.0567.2072-.0763.5984.1027,1.0924.3315l.0613.0286.0016,0,1.7886.8242a.5928.5928,0,0,0,.7857-.2909l.7177-1.5452a.59.59,0,0,0-.2868-.7849l-.3912-.1807a.5926.5926,0,0,0-.7857.2909l-.0779.167-.0066.0129c-.0563-.02-.1376-.0514-.2519-.104l-.5719-.2636A3.54,3.54,0,0,0,377.8279,56.643Zm-4.807,3.0251,1.1968-2.5776a.9731.9731,0,0,1,.58-.5934,1.0509,1.0509,0,0,1,.668.0953c.4045.1865.8818.56.373,1.6543L374.8,60.4877Z"></path>
            <path d="M381.0021,41.7335l-2.0819,2.994a.59.59,0,0,0,.1459.823l7.0844,4.9106a.5953.5953,0,0,0,.3365.1044.6131.6131,0,0,0,.1061-.0091.6025.6025,0,0,0,.3829-.2462l.5288-.7608a.5913.5913,0,0,0-.1476-.823l-3.0068-2.084,1.2167-1.7491c1.1453-1.668.9779-3.1962-.4575-4.1937C384.425,40.2268,382.658,39.381,381.0021,41.7335Zm.363,2.839,1.2349-1.776a1.3088,1.3088,0,0,1,.7144-.59.8142.8142,0,0,1,.6233.1781c.3464.24.6249.591.0712,1.3874l-1.2365,1.777Z"></path>
            <path d="M385.93,35.5877a.5969.5969,0,0,0-.3995.2155l-.5868.7185a.59.59,0,0,0,.0829.8321l6.6783,5.4493a.59.59,0,0,0,.373.1326.4779.4779,0,0,0,.06-.0033.5962.5962,0,0,0,.4011-.2155l.5851-.7182a.5913.5913,0,0,0-.0812-.8321l-6.68-5.4492A.5845.5845,0,0,0,385.93,35.5877Z"></path>
            <path d="M394.0074,29.085a.6008.6008,0,0,0-.1823-.4144l-.5354-.51a.5924.5924,0,0,0-.8371.0216L388.312,32.517a.5925.5925,0,0,0,.0182.8363l6.2308,5.9506a.5919.5919,0,0,0,.8371-.0207l4.1423-4.3354a.5924.5924,0,0,0-.0182-.8362l-.5338-.51a.6321.6321,0,0,0-.421-.1629.5979.5979,0,0,0-.416.1836L395.06,36.859l-1.5946-1.5225,2.2377-2.3421a.5907.5907,0,0,0-.0166-.8362l-.5354-.5106a.5845.5845,0,0,0-.4226-.1633.6.6,0,0,0-.4144.184l-2.2361,2.3422L390.75,32.7433l3.0914-3.2356A.6.6,0,0,0,394.0074,29.085Z"></path>
            <path d="M398.1762,22.7224a4.8219,4.8219,0,0,0-1.7835,3.4188,5.32,5.32,0,0,0,1.3111,3.6881,5.2573,5.2573,0,0,0,3.4212,1.9261,4.5049,4.5049,0,0,0,.5106.029,4.9693,4.9693,0,0,0,3.1891-1.2043c2.009-1.6816,2.4632-3.9794,1.1835-5.9962a.5863.5863,0,0,0-.4077-.2669.5978.5978,0,0,0-.4708.1326l-.7194.603a.5932.5932,0,0,0-.1309.757,2.3556,2.3556,0,0,1-.7658,3.2029v0a2.7254,2.7254,0,0,1-2.1532.6717,3.2953,3.2953,0,0,1-2.0355-1.2121,3.3611,3.3611,0,0,1-.852-2.2091,2.6407,2.6407,0,0,1,1.0145-1.9729,2.3462,2.3462,0,0,1,3.2853-.1869.5917.5917,0,0,0,.7674.0054l.7211-.6025a.5941.5941,0,0,0,.0232-.89C402.5257,20.9994,400.1868,21.0408,398.1762,22.7224Z"></path>
            <path d="M409.5753,25.77a.59.59,0,0,0,.8189.169l5.0125-3.2844a.6.6,0,0,0,.2552-.3751.5849.5849,0,0,0-.0828-.445l-.4045-.6183a.5907.5907,0,0,0-.8188-.1687l-3.7395,2.452-1.2051-1.8449,2.7052-1.7748a.5936.5936,0,0,0,.174-.8189l-.4044-.6182a.5808.5808,0,0,0-.373-.2545.5974.5974,0,0,0-.4458.0846L408.36,20.0475l-1.0028-1.5353,3.7412-2.4524a.5925.5925,0,0,0,.2552-.3746.5846.5846,0,0,0-.0829-.4451l-.4044-.6182a.5907.5907,0,0,0-.8188-.1691l-5.0109,3.2849a.5923.5923,0,0,0-.1724.8192Z"></path>
            <path d="M422.5541,16.4692a1.9264,1.9264,0,0,0,.8122-.1815,1.8787,1.8787,0,0,0,.9283-2.5058,1.84,1.84,0,0,0-1.0592-.9734,1.914,1.914,0,0,0-2.4333,1.1474,1.8841,1.8841,0,0,0,1.752,2.5133Z"></path>
            <path d="M433.4361,14.3a.5873.5873,0,0,0,.1691-.0249l5.5015-1.6426a.5929.5929,0,0,0,.3994-.736l-.2088-.7086a.5836.5836,0,0,0-.2835-.3514.5916.5916,0,0,0-.4508-.0464l-4.0462,1.2084-2.06-6.9942a.5884.5884,0,0,0-.7343-.3978l-.8868.2652a.59.59,0,0,0-.4012.736l2.4367,8.27a.591.591,0,0,0,.5652.4227Z"></path>
            <path d="M446.9072,2.3707l-.1359-.7268a.5874.5874,0,0,0-.69-.47l-5.8794,1.1251a.5936.5936,0,0,0-.4724.6924l1.59,8.4768a.5885.5885,0,0,0,.247.3788.5959.5959,0,0,0,.3315.1015.5646.5646,0,0,0,.1111-.01l5.8794-1.1255a.5939.5939,0,0,0,.4724-.6929l-.1359-.7269a.59.59,0,0,0-.6912-.469l-4.3876.84L442.74,7.5962l3.1759-.6083a.593.593,0,0,0,.4724-.6924l-.1359-.7265a.59.59,0,0,0-.6913-.47l-3.1759.6079-.3381-1.8038,4.3876-.84A.5955.5955,0,0,0,446.9072,2.3707Z"></path>
            <path d="M463.5857,2.7255C463.5741,1.9017,463.2409,0,460.4463,0c-.0266,0-.0564,0-.0846.0008l-3.6384.0709a.5951.5951,0,0,0-.5818.6029l.1326,8.6314a.5879.5879,0,0,0,.5885.58h.0116l.9249-.0174a.5957.5957,0,0,0,.5835-.603l-.0564-3.6636,2.125-.0406C462.47,5.51,463.6122,4.4767,463.5857,2.7255Zm-2.2643-.57a.8069.8069,0,0,1,.2172.61c.0066.4215-.1177.8541-1.0841.8732l-2.1581.0422L458.27,1.9651l2.1581-.0419A1.3068,1.3068,0,0,1,461.3214,2.1553Z"></path>
            <path d="M468.0346.1819l-.92-.0833a.5927.5927,0,0,0-.6448.5363l-.5437,5.7724a3.618,3.618,0,0,0,.6514,2.8411,3.9993,3.9993,0,0,0,2.8461,1.1641q.3828.0348.726.0348a3.4907,3.4907,0,0,0,2.2874-.6709,3.6476,3.6476,0,0,0,1.1736-2.677l.5437-5.7725a.59.59,0,0,0-.5338-.6427L472.699.6013a.5953.5953,0,0,0-.6448.5362L471.5105,6.91a1.9959,1.9959,0,0,1-.4624,1.3323,2.8032,2.8032,0,0,1-2.8179-.2532,2.0064,2.0064,0,0,1-.2055-1.3932l.5437-5.7717A.59.59,0,0,0,468.0346.1819Z"></path>
            <path d="M475.6727,9.3276l-.1889.9058a.59.59,0,0,0,.4591.6983l6.5176,1.3364a.6429.6429,0,0,0,.1193.0116.5943.5943,0,0,0,.5818-.4732l.1625-.7841a.5891.5891,0,0,0-.4575-.6982l-4.4307-.9088,6.0883-4.8136a.5917.5917,0,0,0,.2138-.3443l.1906-.9055a.59.59,0,0,0-.4591-.6991l-6.5176-1.3364a.5974.5974,0,0,0-.7012.4617l-.1624.7848a.59.59,0,0,0,.4575.6979l4.4307.9091-6.09,4.8128A.6028.6028,0,0,0,475.6727,9.3276Z"></path>
            <path d="M485.4358,13.0521l6.327,2.0529a.5855.5855,0,0,0,.1823.0291.5924.5924,0,0,0,.5636-.4095l.2519-.7633a.5935.5935,0,0,0-.0348-.4517.5842.5842,0,0,0-.3431-.2942l-4.3014-1.3948,6.5839-4.11a.6.6,0,0,0,.25-.32l.2884-.88a.5907.5907,0,0,0-.3779-.745l-6.327-2.0525a.5919.5919,0,0,0-.4508.0364.6.6,0,0,0-.2951.3444l-.25.7629a.5887.5887,0,0,0,.3779.7459l4.3,1.3944-6.5839,4.11a.5965.5965,0,0,0-.25.3191l-.2884.88A.5909.5909,0,0,0,485.4358,13.0521Z"></path>
            <path d="M502.5784,17.5757a1.8519,1.8519,0,0,0,.5885-.0962,1.893,1.893,0,0,0,1.0923-.9523,1.8673,1.8673,0,0,0-.8387-2.52,1.8806,1.8806,0,0,0-1.462-.1027,1.8862,1.8862,0,0,0-.2337,3.4659A1.8969,1.8969,0,0,0,502.5784,17.5757Z"></path>
            <path d="M514.0339,15.2219a.5906.5906,0,0,0-.8221.1542l-4.9064,7.1267a.59.59,0,0,0,.1491.8221l.7609.523a.5906.5906,0,0,0,.3348.1032.5708.5708,0,0,0,.1094-.01.5962.5962,0,0,0,.38-.2469l2.0123-2.9223,2.66,1.8258a.59.59,0,0,0,.4425.0936.6.6,0,0,0,.3813-.2478l.4193-.61a.5912.5912,0,0,0-.1508-.8226l-2.6587-1.8266,1.0442-1.5167,3.4726,2.3828a.5914.5914,0,0,0,.8222-.1538l.421-.61a.59.59,0,0,0-.1492-.8229Z"></path>
            <path d="M521.7682,20.7536a.5922.5922,0,0,0-.8305.1l-5.3639,6.7853a.5925.5925,0,0,0,.0961.8308l.7261.5723a.5842.5842,0,0,0,.3646.126.56.56,0,0,0,.07-.0037.5979.5979,0,0,0,.3962-.2217l5.3639-6.7866a.6.6,0,0,0,.1243-.4367.5921.5921,0,0,0-.22-.3949Z"></path>
            <path d="M526.3812,24.5283l-.494-.4632a.5909.5909,0,0,0-.8354.0273L519.1227,30.39a.5906.5906,0,0,0-.1608.4236.5773.5773,0,0,0,.1856.4127l.6266.59a.5933.5933,0,0,0,.8371-.0278l3.7395-3.9723-.5039,7.537a.5909.5909,0,0,0,.1839.4682l.494.4641a.5884.5884,0,0,0,.4044.16.5958.5958,0,0,0,.4327-.1869l5.9275-6.2988a.5915.5915,0,0,0,.1607-.4243.5753.5753,0,0,0-.1856-.4119l-.6266-.59a.5928.5928,0,0,0-.837.0273l-3.7379,3.9728.5023-7.537A.5915.5915,0,0,0,526.3812,24.5283Z"></path>
            <path d="M526.7392,38.3724a.5845.5845,0,0,0,.1343.4318l1.9294,2.3148a4.5441,4.5441,0,0,0,3.5058,1.7864,5.16,5.16,0,0,0,3.2869-1.3181c2.2925-1.9145,2.5908-4.572.7575-6.7712L534.4221,32.5a.5853.5853,0,0,0-.3995-.2092.5928.5928,0,0,0-.4326.1359L526.95,37.97A.5955.5955,0,0,0,526.7392,38.3724Zm5.3855,2.4739a2.4037,2.4037,0,0,1-1.8416-.963l-.9614-1.152,4.59-3.8332.9614,1.1533a2.4015,2.4015,0,0,1,.615,1.9853,3.2986,3.2986,0,0,1-1.24,1.9344A3.258,3.258,0,0,1,532.1247,40.8463Z"></path>
            <path d="M545.2427,47.6316a.5937.5937,0,0,0-.0315-.5134l-.5437-.9652a.5742.5742,0,0,0-.5536-.2983.5933.5933,0,0,0-.51.3713l-2.0355,5.0477L538.06,53.259a.5924.5924,0,0,0-.2254.8073l.4542.8047a.5893.5893,0,0,0,.8056.2226l3.5173-1.9912,5.3557.8785a.5949.5949,0,0,0,.6149-.876l-.5138-.9113a.5909.5909,0,0,0-.4161-.2921l-3.89-.6481Z"></path>
            <path d="M545.0687,56.9654a5.2847,5.2847,0,0,0-2.8444,2.7391,4.9006,4.9006,0,0,0,4.5052,6.864,5.62,5.62,0,0,0,2.193-.46,5.29,5.29,0,0,0,2.8461-2.7388,5.0186,5.0186,0,0,0-2.76-6.5482A5.2627,5.2627,0,0,0,545.0687,56.9654Zm-.9316,3.5538a3.2968,3.2968,0,0,1,1.75-1.6136,3.6021,3.6021,0,0,1,1.404-.2984,2.912,2.912,0,0,1,.968.1612,2.8565,2.8565,0,0,1,1.5946,3.7863,3.5259,3.5259,0,0,1-4.1208,1.7512,2.6932,2.6932,0,0,1-1.6012-1.5519v0A2.7072,2.7072,0,0,1,544.1371,60.5192Z"></path>
            <path d="M548.838,70.8964l5.5727-1.6128a.5936.5936,0,0,0,.4061-.7334l-.2536-.8877a.5887.5887,0,0,0-.731-.4036L548.26,68.8717c-2.4433.707-3.2058,2.1648-2.4748,4.7287.5669,1.9816,1.54,2.926,3.0831,2.926a5.4806,5.4806,0,0,0,1.5084-.242l5.5728-1.612a.5946.5946,0,0,0,.4061-.7326l-.2536-.8889a.5817.5817,0,0,0-.2818-.3535.5883.5883,0,0,0-.4492-.0506L549.7977,74.26c-1.3244.3833-1.7868.1243-2.1631-1.1947a1.9205,1.9205,0,0,1-.02-1.4649A2.009,2.009,0,0,1,548.838,70.8964Z"></path>
            <path d="M551.0426,84.2026l-.0664.0116-1.9459.3319a.5939.5939,0,0,0-.4857.6826l.2785,1.6774a.59.59,0,0,0,.5818.4923.5754.5754,0,0,0,.0994-.0087l.426-.0729a.594.594,0,0,0,.4857-.6829l-.03-.182-.0017-.0124a2.4274,2.4274,0,0,1,.2669-.0572l.62-.1069a3.5772,3.5772,0,0,0,2.1731-.8657,2.4823,2.4823,0,0,0,2.3173.724c1.747-.2992,2.6106-1.6037,2.3056-3.4933l-.7094-4.2526a.5874.5874,0,0,0-.6813-.484l-8.5116,1.4537a.6.6,0,0,0-.3846.2412.5913.5913,0,0,0-.1011.4417l.1509.9117a.5905.5905,0,0,0,.6812.4836L551.88,80.86l.2835,1.7019c.1409.84.063,1.1682-.0282,1.2958C552.0056,84.0393,551.5813,84.111,551.0426,84.2026Zm3.6383-.2117a1.5127,1.5127,0,0,1-.4989-1.024l-.4045-2.4308,1.9328-.33.4674,2.7947a.9762.9762,0,0,1-.1442.8155,1.0563,1.0563,0,0,1-.61.3A.9931.9931,0,0,1,554.6809,83.9909Z"></path>
            <path d="M549.5706,95.4352a.6045.6045,0,0,0-.1657.4222l.0165.9249a.59.59,0,0,0,.59.5785h.0133l8.6343-.1852a.5944.5944,0,0,0,.416-.1823.6044.6044,0,0,0,.1658-.4223l-.0166-.9253a.59.59,0,0,0-.6033-.5785l-8.6343.1856A.5943.5943,0,0,0,549.5706,95.4352Z"></path>
            <path d="M559.2194,101.6055l.0464-.678a.587.587,0,0,0-.1426-.4285.5945.5945,0,0,0-.4061-.2l-8.6144-.5594a.5926.5926,0,0,0-.4293.1467.6.6,0,0,0-.2022.4061l-.058.8615a.5889.5889,0,0,0,.55.6278l5.4318.3535-6.14,4.4232A.5892.5892,0,0,0,549.01,107l-.0481.6767a.5885.5885,0,0,0,.55.6287l8.6111.56.04.0013a.5946.5946,0,0,0,.5917-.5528l.0614-.8616a.5953.5953,0,0,0-.1442-.4289.5853.5853,0,0,0-.4061-.2005l-5.4336-.3531,6.1413-4.4232A.5886.5886,0,0,0,559.2194,101.6055Z"></path>
            <path d="M556.43,118.647l-5.3441-1.0186,6.63-3.6342a.5913.5913,0,0,0,.2984-.4078l.131-.6655a.5876.5876,0,0,0-.4691-.692l-8.4686-1.6145a.5954.5954,0,0,0-.6945.47l-.1658.8487a.5908.5908,0,0,0,.4691.692l5.3424,1.0178-6.632,3.6342a.5927.5927,0,0,0-.2983.4086l-.1293.6655a.59.59,0,0,0,.4674.692l8.47,1.6141a.6108.6108,0,0,0,.1111.0108.5962.5962,0,0,0,.5834-.4807l.1658-.8479a.599.599,0,0,0-.09-.4438A.59.59,0,0,0,556.43,118.647Z"></path>
            <path d="M555.1732,123.8725l-8.23-2.5751a.5938.5938,0,0,0-.7426.3883l-1.8084,5.71a.593.593,0,0,0,.04.4513.5841.5841,0,0,0,.3464.29l.7045.22a.5945.5945,0,0,0,.7425-.3883l1.351-4.2612,2.1034.6585-.9763,3.0852a.6.6,0,0,0,.04.4508.584.584,0,0,0,.3464.29l.7062.22a.5957.5957,0,0,0,.7425-.3887l.9764-3.0844,1.752.5483-1.3493,4.2616a.5879.5879,0,0,0,.3846.7409l.7061.2209a.5762.5762,0,0,0,.1757.0269.5949.5949,0,0,0,.5669-.4152l1.8084-5.7091a.5872.5872,0,0,0-.3862-.7413Z"></path>
            <path d="M544.0459,130.1141a.5828.5828,0,0,0-.4525-.0087.5926.5926,0,0,0-.3282.3141l-.3729.8482a.5888.5888,0,0,0,.3016.7783l3.1262,1.3683-.6978,1.583c-.3663.8283-.6233,1.0459-.7741,1.0832a2.34,2.34,0,0,1-1.0625-.3216l-.063-.0273-1.8051-.79a.5931.5931,0,0,0-.7807.305l-.69,1.56a.5907.5907,0,0,0,.3034.7795l.3961.1724a.5944.5944,0,0,0,.7791-.305l.0762-.1707.0034-.0121c.058.0187.1392.0485.2536.0983l.5834.2552a3.5476,3.5476,0,0,0,2.2825.4637A2.4833,2.4833,0,0,0,546.66,139.97a3.1823,3.1823,0,0,0,1.273.2872,2.8527,2.8527,0,0,0,2.5693-1.9506l1.7454-3.9566a.5946.5946,0,0,0,.01-.4525.5881.5881,0,0,0-.3133-.3266Zm5.83,4.8558-1.147,2.6a.8385.8385,0,0,1-1.2415.5238c-.4078-.1782-.8918-.5428-.4045-1.6476l.9979-2.2618Z"></path>
            <path d="M536.97,144.4226a.5937.5937,0,0,0-.8239.1546l-.5254.7641a.5908.5908,0,0,0,.1508.8222l3.0152,2.07-1.2068,1.7541c-1.1387,1.6737-.9647,3.2012.4758,4.1908a2.9149,2.9149,0,0,0,1.6062.537,3.0715,3.0715,0,0,0,2.4963-1.5888l2.0686-3.0027a.5919.5919,0,0,0-.1508-.8225Zm4.8119,5.8658-1.2266,1.7819c-.55.7993-.983.66-1.3344.4185a.7958.7958,0,0,1-.3829-.5122,1.3087,1.3087,0,0,1,.305-.8752l1.2266-1.7819Z"></path>
            <path d="M531.5147,152.1639a.5843.5843,0,0,0-.436-.121.5975.5975,0,0,0-.3961.223l-.5719.7285a.5921.5921,0,0,0,.0978.83l6.7778,5.315a.5936.5936,0,0,0,.8321-.1015l.5719-.7281a.592.592,0,0,0-.0978-.83Z"></path>
            <polygon points="524.264 160.57 524.81 161.07 528.236 157.339 530.727 159.628 528.137 162.447 528.68 162.948 531.273 160.127 533.492 162.166 530.064 165.896 530.608 166.396 534.662 161.983 528.319 156.157 524.264 160.57" style="fill: #231f20;stroke: #231f20;stroke-linecap: round;stroke-linejoin: round;stroke-width: 0.972871225714996px"></polygon>
            <path d="M518.632,164.63c-1.9758,1.7189-2.3852,4.0229-1.0691,6.0137a.59.59,0,0,0,.88.1181l.7094-.6162a.5927.5927,0,0,0,.116-.76,2.3521,2.3521,0,0,1,.7045-3.2136,2.8289,2.8289,0,0,1,4.1953.46,3.35,3.35,0,0,1,.8918,2.1909,2.6351,2.6351,0,0,1-.9763,1.99,2.3451,2.3451,0,0,1-3.2787.2486.5909.5909,0,0,0-.7674.0087l-.7095.6162a.5991.5991,0,0,0-.2039.4442.59.59,0,0,0,.1973.4451,4.23,4.23,0,0,0,2.8328,1.1305,5.0152,5.0152,0,0,0,3.2687-1.351,4.8082,4.8082,0,0,0,1.7173-3.4494,5.2966,5.2966,0,0,0-1.3791-3.66A4.8936,4.8936,0,0,0,518.632,164.63Z"></path>
            <path d="M513.9709,169.5344a.5914.5914,0,0,0-.8221-.1529l-4.9446,3.3819a.5919.5919,0,0,0-.1558.823l.4144.61a.5909.5909,0,0,0,.8222.1529l3.6914-2.5237,1.24,1.8192-2.67,1.8271a.5923.5923,0,0,0-.1558.8225l.4144.61a.5906.5906,0,0,0,.8221.1529l2.67-1.8262,1.0327,1.5142-3.6881,2.5245a.5911.5911,0,0,0-.1575.8225l.4144.61a.5914.5914,0,0,0,.8221.1533l4.9446-3.3818a.5939.5939,0,0,0,.1575-.8226Z"></path>
            <path d="M501.7944,179.1807a1.8963,1.8963,0,0,0-1.4321.0994,1.8722,1.8722,0,0,0-.88,2.522,1.8446,1.8446,0,0,0,1.0774.954,1.8872,1.8872,0,0,0,.6034.0994,1.9227,1.9227,0,0,0,1.8084-1.2962,1.89,1.89,0,0,0-1.1769-2.3786Z"></path>
            <path d="M490.6058,181.5262a.5914.5914,0,0,0-.4509-.0382l-5.4683,1.745a.5945.5945,0,0,0-.3862.7439l.2221.704a.5849.5849,0,0,0,.29.3461.5917.5917,0,0,0,.4508.0381l4.023-1.2838,2.1929,6.9535a.59.59,0,0,0,.5619.4111.5785.5785,0,0,0,.1807-.0282l.8819-.2822a.5944.5944,0,0,0,.3862-.7438l-2.5941-8.22A.5826.5826,0,0,0,490.6058,181.5262Z"></path>
            <path d="M481.7925,183.9835l-5.8579,1.2357a.5968.5968,0,0,0-.4608.7016l.1508.7244a.5872.5872,0,0,0,.6979.4562l4.376-.9224.4459,2.1614-3.166.6689a.5932.5932,0,0,0-.4591.7l.1491.7244a.59.59,0,0,0,.7.457l3.166-.668.3729,1.7989-4.3743.9229a.5939.5939,0,0,0-.4591.7015l.1508.7244a.5867.5867,0,0,0,.5752.47.6278.6278,0,0,0,.1226-.0129l5.86-1.2361a.5931.5931,0,0,0,.4591-.7007l-1.7487-8.45A.59.59,0,0,0,481.7925,183.9835Z"></path>
            <path d="M467.3981,186.4711a.587.587,0,0,0-.4243-.157l-.925.0364a.5939.5939,0,0,0-.57.6142l.126,3.6607-2.1233.0821c-2.019.0886-3.1411,1.1437-3.0831,2.8949.0282.8122.3879,2.6654,3.0781,2.6654.0663,0,.1309-.0013.1989-.0033l3.6367-.14a.5937.5937,0,0,0,.57-.6141l-.2967-8.6277A.59.59,0,0,0,467.3981,186.4711Zm-4.7241,7.658a1.011,1.011,0,0,1-.0563-1.2067,1.3469,1.3469,0,0,1,.8967-.2922l2.1565-.0833.058,1.714-2.1565.0833A1.3006,1.3006,0,0,1,462.674,194.1291Z"></path>
            <path d="M454.4259,186.0265a4.0344,4.0344,0,0,0-3.0035.6928,3.6465,3.6465,0,0,0-1.12,2.6986l-.4343,5.78a.5883.5883,0,0,0,.5454.6324l.9216.0655a.5936.5936,0,0,0,.6332-.5483l.4359-5.78a2.0163,2.0163,0,0,1,.4393-1.3409,1.9328,1.9328,0,0,1,1.4387-.2818c1.3692.0974,1.7173.5,1.6145,1.8714l-.4359,5.78a.5967.5967,0,0,0,.1409.43.59.59,0,0,0,.4044.2022l.9233.0655.0431.0012a.5935.5935,0,0,0,.59-.55l.4359-5.78a3.6169,3.6169,0,0,0-.7061-2.8282A3.9932,3.9932,0,0,0,454.4259,186.0265Z"></path>
            <path d="M447.8918,185.632l-6.5408-1.213a.5946.5946,0,0,0-.6912.4745l-.1492.7882a.5884.5884,0,0,0,.4724.6887l4.4456.8247-5.9971,4.9263a.5963.5963,0,0,0-.2072.3481l-.1723.9091a.5907.5907,0,0,0,.4707.69l6.5424,1.2125a.5742.5742,0,0,0,.1078.01.5891.5891,0,0,0,.3348-.1045.5988.5988,0,0,0,.2487-.38l.1491-.7878a.5892.5892,0,0,0-.4724-.69l-4.4456-.8242,5.9971-4.9271a.5969.5969,0,0,0,.2072-.3485l.1724-.9092A.5887.5887,0,0,0,447.8918,185.632Z"></path>
            <path d="M438.3624,183.6943l-6.3634-1.93a.5927.5927,0,0,0-.7393.3941l-.2354.7666a.5874.5874,0,0,0,.3912.7385l4.3263,1.3124-6.5027,4.2342a.5868.5868,0,0,0-.2436.3237l-.2735.8847a.59.59,0,0,0,.3928.7381l6.3634,1.93a.61.61,0,0,0,.1724.0249.5868.5868,0,0,0,.2785-.07.5942.5942,0,0,0,.2884-.3505l.2354-.7662a.589.589,0,0,0-.3912-.7373l-4.3263-1.3119,6.5027-4.2351a.5954.5954,0,0,0,.2453-.3241l.27-.8851A.5892.5892,0,0,0,438.3624,183.6943Z"></path>
            <path d="M421.979,179.6817a1.8832,1.8832,0,1,0-.1675,3.468,1.9059,1.9059,0,0,0,1.1322-2.4109A1.8844,1.8844,0,0,0,421.979,179.6817Z"></path>
        </svg>